<?xml version="1.0" encoding="UTF-8"?>
<!DOCTYPE svg PUBLIC "-//W3C//DTD SVG 1.1//EN" "http://www.w3.org/Graphics/SVG/1.1/DTD/svg11.dtd">
<!-- Creator: CorelDRAW 2020 (64-Bit) -->
<svg xmlns="http://www.w3.org/2000/svg" xml:space="preserve" width="591px" height="591px" version="1.1" style="shape-rendering:geometricPrecision; text-rendering:geometricPrecision; image-rendering:optimizeQuality; fill-rule:evenodd; clip-rule:evenodd"
viewBox="0 0 591 591"
 xmlns:xlink="http://www.w3.org/1999/xlink"
 xmlns:xodm="http://www.corel.com/coreldraw/odm/2003">
 <defs>
  <style type="text/css">
   <![CDATA[
    .fil1 {fill:none}
    .fil0 {fill:white}
   ]]>
  </style>
 </defs>
 <g id="Слой_x0020_1">
  <metadata id="CorelCorpID_0Corel-Layer"/>
  <g id="_2863822569408">
   <path class="fil0" d="M303.48 184.45c-54.84,-2.89 -97.63,35.17 -107.06,94.71 -7.81,49.33 6.04,109.42 17.89,112.44 5.03,1.28 17.12,-7.97 25.92,-16.26 1.65,-1.56 4.16,-1.83 6.09,-0.64 13.72,8.39 29.25,14.69 46.37,15.59 56.3,2.95 106.18,-41.11 109.13,-97.41 2.95,-56.29 -42.05,-105.48 -98.34,-108.43l0 0zm-91.82 285.89c-2.13,-1.5 -5.05,-1.1 -6.84,0.8 -23.78,25.37 -84.63,43.16 -87.43,8.54 0,-27.12 -6.09,-49.98 -12.8,-75.15 -8.21,-30.82 -17.35,-65.1 -17.35,-114.93 0,-118.82 97.45,-208.18 213,-208.18 115.54,0 206.13,93.72 206.13,209.33 0,115.62 -93.47,207.03 -205.04,207.03 -39.58,0 -58.79,-5.57 -89.67,-27.44l0 0z"/>
   <path class="fil1" d="M10.37 3.22l567.96 0c5.82,0 10.54,4.72 10.54,10.55l0 567.95c0,5.83 -4.72,10.55 -10.54,10.55l-567.96 0c-5.82,0 -10.54,-4.72 -10.54,-10.55l0 -567.95c0,-5.83 4.72,-10.55 10.54,-10.55z"/>
  </g>
 </g>
</svg>
