<?xml version="1.0" encoding="UTF-8"?>
<!DOCTYPE svg PUBLIC "-//W3C//DTD SVG 1.1//EN" "http://www.w3.org/Graphics/SVG/1.1/DTD/svg11.dtd">
<!-- Creator: CorelDRAW 2020 (64-Bit) -->
<svg xmlns="http://www.w3.org/2000/svg" xml:space="preserve" width="591px" height="591px" version="1.1" style="shape-rendering:geometricPrecision; text-rendering:geometricPrecision; image-rendering:optimizeQuality; fill-rule:evenodd; clip-rule:evenodd"
viewBox="0 0 591 591"
 xmlns:xlink="http://www.w3.org/1999/xlink"
 xmlns:xodm="http://www.corel.com/coreldraw/odm/2003">
 <defs>
  <style type="text/css">
   <![CDATA[
    .fil1 {fill:none;fill-rule:nonzero}
    .fil0 {fill:#FEFEFE;fill-rule:nonzero}
   ]]>
  </style>
 </defs>
 <g id="Слой_x0020_1">
  <metadata id="CorelCorpID_0Corel-Layer"/>
  <g id="_2863822431408">
   <path class="fil0" d="M297.17 300.34c71.88,-0.02 130.09,-58.31 130.08,-130.17 -0.03,-71.87 -58.32,-130.1 -130.17,-130.07 -71.86,0.02 -130.1,58.31 -130.08,130.17 0.09,71.83 58.34,130.03 130.17,130.07l0 0zm0 -183.96c29.77,0 53.9,24.14 53.9,53.91 0,29.78 -24.13,53.89 -53.9,53.89 -29.77,0 -53.91,-24.14 -53.91,-53.91 0.04,-29.75 24.16,-53.86 53.91,-53.89l0 0zm52.61 290.13c26.78,-6.07 52.33,-16.67 75.58,-31.3 17.72,-11.42 22.82,-35.03 11.39,-52.75 -11.24,-17.44 -34.38,-22.7 -52.06,-11.82 -53.58,33.5 -121.61,33.5 -175.19,0 -17.78,-11.16 -41.27,-5.82 -52.47,11.94 -11.25,17.78 -5.97,41.34 11.85,52.59 0.02,0 0.04,0.02 0.04,0.02 23.23,14.61 48.79,25.21 75.54,31.3l-72.75 72.76c-14.5,15.3 -13.82,39.47 1.5,53.95 14.72,13.92 37.73,13.92 52.45,0l71.46 -71.5 71.51 71.5c14.89,14.87 38.97,14.87 53.86,0 14.86,-14.88 14.86,-38.97 0,-53.86l-72.71 -72.83 0 0z"/>
  </g>
  <path class="fil1" d="M10.52 1.42l567.96 0c5.82,0 10.54,4.72 10.54,10.55l0 567.95c0,5.82 -4.72,10.55 -10.54,10.55l-567.96 0c-5.82,0 -10.54,-4.73 -10.54,-10.55l0 -567.95c0,-5.83 4.72,-10.55 10.54,-10.55z"/>
 </g>
</svg>
