<?xml version="1.0" encoding="UTF-8"?>
<!DOCTYPE svg PUBLIC "-//W3C//DTD SVG 1.1//EN" "http://www.w3.org/Graphics/SVG/1.1/DTD/svg11.dtd">
<!-- Creator: CorelDRAW 2020 (64-Bit) -->
<svg xmlns="http://www.w3.org/2000/svg" xml:space="preserve" width="591px" height="591px" version="1.1" style="shape-rendering:geometricPrecision; text-rendering:geometricPrecision; image-rendering:optimizeQuality; fill-rule:evenodd; clip-rule:evenodd"
viewBox="0 0 591 591"
 xmlns:xlink="http://www.w3.org/1999/xlink"
 xmlns:xodm="http://www.corel.com/coreldraw/odm/2003">
 <defs>
  <style type="text/css">
   <![CDATA[
    .fil1 {fill:none;fill-rule:nonzero}
    .fil0 {fill:white;fill-rule:nonzero}
   ]]>
  </style>
 </defs>
 <g id="Слой_x0020_1">
  <metadata id="CorelCorpID_0Corel-Layer"/>
  <g id="_2863830456784">
   <g id="_2236433701072">
    <g id="Слой_x0020_1_0">
     <path class="fil0" d="M507.76 116.37c-1.56,-4.68 -3.12,-6.24 -6.25,-7.8 -6.25,-3.14 -17.18,1.56 -17.18,1.56 0,0 -393.57,143.68 -415.44,159.3 -4.69,3.12 -6.25,4.68 -7.81,7.81 -3.13,10.93 7.81,15.62 7.81,15.62l101.52 32.8c0,0 3.12,0 4.68,0 23.43,-14.06 231.15,-148.38 243.65,-153.06 1.56,0 3.12,0 3.12,1.56 -4.69,17.18 -185.86,181.17 -185.86,181.17 0,0 0,1.56 -1.56,1.56l0 0 -9.37 101.51c0,0 -4.69,31.24 26.55,0 21.87,-21.86 42.17,-40.6 53.1,-49.97 34.37,24.99 71.84,51.54 89.02,65.59 7.82,7.82 15.62,7.82 20.31,7.82 15.62,0 20.3,-17.18 20.3,-17.18 0,0 71.85,-292.06 73.41,-331.11 0,-3.12 0,-6.24 0,-9.37 0,-1.57 0,-6.25 0,-7.81l0 0 0 0z"/>
    </g>
   </g>
   <path class="fil1" d="M11.08 1.38l567.95 0c5.83,0 10.55,4.73 10.55,10.55l0 567.96c0,5.82 -4.72,10.54 -10.55,10.54l-567.95 0c-5.83,0 -10.55,-4.72 -10.55,-10.54l0 -567.96c0,-5.82 4.72,-10.55 10.55,-10.55z"/>
  </g>
 </g>
</svg>
