<?xml version="1.0" encoding="UTF-8"?>
<!DOCTYPE svg PUBLIC "-//W3C//DTD SVG 1.1//EN" "http://www.w3.org/Graphics/SVG/1.1/DTD/svg11.dtd">
<!-- Creator: CorelDRAW 2020 (64-Bit) -->
<svg xmlns="http://www.w3.org/2000/svg" xml:space="preserve" width="591px" height="591px" version="1.1" style="shape-rendering:geometricPrecision; text-rendering:geometricPrecision; image-rendering:optimizeQuality; fill-rule:evenodd; clip-rule:evenodd"
viewBox="0 0 591 591"
 xmlns:xlink="http://www.w3.org/1999/xlink"
 xmlns:xodm="http://www.corel.com/coreldraw/odm/2003">
 <defs>
  <style type="text/css">
   <![CDATA[
    .fil1 {fill:none;fill-rule:nonzero}
    .fil0 {fill:white;fill-rule:nonzero}
   ]]>
  </style>
 </defs>
 <g id="Слой_x0020_1">
  <metadata id="CorelCorpID_0Corel-Layer"/>
  <g id="_2864233690320">
   <g id="_2235938001216">
    <g id="Слой_x0020_1_0">
     <path class="fil0" d="M26.67 163.79c24.32,0 77.52,0 95.76,0 3.04,0 7.6,1.52 9.13,6.08 21.27,47.12 48.63,91.2 80.56,129.2 3.04,4.56 9.12,4.56 12.16,-1.51 10.64,-24.33 28.88,-83.61 -7.6,-126.17 -3.04,-3.04 -1.52,-9.12 3.04,-12.16 36.47,-15.2 71.44,-16.72 106.4,-1.52 6.08,3.04 10.64,10.64 10.64,18.24l7.61 123.12c0,6.09 4.56,9.12 10.63,9.12 39.53,-9.12 63.85,-68.39 86.65,-130.72 3.04,-7.6 10.64,-12.16 18.24,-12.16l88.16 0c7.6,0 13.68,6.08 12.16,13.68 -7.6,44.08 -53.2,101.84 -76,129.2 -7.6,9.13 -7.6,22.8 0,33.44l79.04 94.25c6.08,6.09 1.52,16.72 -7.6,16.72l-98.8 0c-7.6,0 -15.2,-3.03 -21.29,-9.12l-69.92 -57.76c-3.04,-4.56 -10.64,-6.08 -13.68,-1.53 -9.12,10.65 -7.6,22.81 -12.16,53.21 -1.52,9.12 -9.12,15.2 -18.23,15.2l-68.41 0c-9.12,0 -19.77,-1.52 -27.37,-6.08 -41.03,-21.28 -147.44,-86.64 -208.24,-269.05 -1.52,-6.08 3.04,-13.68 9.12,-13.68l0 0 0 0z"/>
    </g>
   </g>
   <path class="fil1" d="M12.93 2.47l567.96 0c5.82,0 10.54,4.73 10.54,10.55l0 567.96c0,5.82 -4.72,10.54 -10.54,10.54l-567.96 0c-5.82,0 -10.54,-4.72 -10.54,-10.54l0 -567.96c0,-5.82 4.72,-10.55 10.54,-10.55z"/>
  </g>
 </g>
</svg>
