<svg xmlns="http://www.w3.org/2000/svg" width="100" height="30" fill="none" viewBox="0 0 70 21"><g fill="#1787F0"><path d="M18.591 1.78917C16.4807 0.106137 13.0776 0 10.15 0C7.20754 0 4.05703 0.121299 1.96164 1.78917C0.921376 2.6231 0 4.63971 0 8.32419C0 12.0087 0.906515 14.0253 1.96164 14.8592C4.07189 16.5422 7.2224 16.6484 10.15 16.6484C13.0925 16.6484 16.4956 16.5271 18.591 14.8592C19.6313 14.0253 20.3 12.0087 20.3 8.32419C20.3 4.63971 19.6313 2.6231 18.591 1.78917ZM17.1049 11.0231C16.9414 12.0238 16.2281 12.8274 15.277 13.0852C13.4491 13.5704 11.324 13.5704 10.15 13.5704C8.97599 13.5704 6.85088 13.5704 5.02299 13.0852C4.07189 12.8274 3.3437 12.0238 3.1951 11.0231C3.09107 10.3863 3.01676 9.52202 3.01676 8.32419C3.01676 7.12635 3.09107 6.24693 3.1951 5.62527C3.35857 4.62455 4.07189 3.82094 5.02299 3.56318C6.85088 3.07798 8.97599 3.07798 10.15 3.07798C11.324 3.07798 13.4491 3.07798 15.277 3.56318C16.2281 3.82094 16.9563 4.62455 17.1049 5.62527C17.2089 6.26209 17.2832 7.12635 17.2832 8.32419C17.2832 9.52202 17.2089 10.4014 17.1049 11.0231ZM15.069 17.922H5.21618C3.99758 17.922 3.0019 18.9379 3.0019 20.1812V21H17.2832V20.1812C17.2832 18.9227 16.2876 17.922 15.069 17.922ZM12.7209 8.79422C11.6361 9.65848 10.4472 10.356 9.16918 10.8866C8.81252 11.0383 8.41127 10.7957 8.36669 10.4166C8.1735 9.03682 8.1735 7.62671 8.36669 6.24693C8.42613 5.85271 8.81252 5.62527 9.16918 5.77689C10.4472 6.30758 11.6361 7.00505 12.7209 7.86931C13.0182 8.08159 13.0182 8.55162 12.7209 8.79422Z"/><path d="M69.4411 11.2461C69.1843 10.8502 68.867 10.5457 68.5196 10.302C68.7764 10.1041 69.0181 9.86046 69.2296 9.54069C69.5619 9.06864 69.7281 8.49001 69.7281 7.83524C69.7281 6.72365 69.3655 5.82525 68.6253 5.17048C67.9002 4.53094 66.8277 4.19594 65.4077 4.19594H60.1508C59.894 4.19594 59.6976 4.39389 59.6976 4.65275V16.5452C59.6976 16.7888 59.894 17.002 60.1508 17.002H65.589C66.9637 17.002 68.0513 16.6366 68.8217 15.9361C69.6072 15.2204 70 14.2611 70 13.1039C70 12.4186 69.8187 11.7791 69.4411 11.2461ZM62.6886 6.63229H65.1056C65.6343 6.63229 66.0422 6.73888 66.299 6.96729C66.5558 7.18047 66.6766 7.48501 66.6766 7.89615C66.6766 8.30728 66.5558 8.62705 66.2839 8.87069C66.012 9.11432 65.6192 9.23614 65.1056 9.23614H62.6886V6.63229ZM66.4954 14.1698C66.2084 14.4591 65.8156 14.5961 65.2718 14.5961H62.6735V11.6116H65.2718C65.8005 11.6116 66.1932 11.7486 66.4803 12.0379C66.7673 12.312 66.9032 12.6775 66.9032 13.1039C66.9183 13.5302 66.7824 13.8804 66.4954 14.1698ZM58.0359 4.21117H48.6701C48.4133 4.21117 48.2169 4.40912 48.2169 4.66798V6.49525C48.2169 6.75411 48.4133 6.95206 48.6701 6.95206H51.8424V16.5604C51.8424 16.8041 52.0388 17.0172 52.2956 17.0172H54.3953C54.637 17.0172 54.8485 16.8041 54.8485 16.5604V6.95206H58.0208C58.2776 6.95206 58.474 6.75411 58.474 6.49525V4.66798C58.4891 4.40912 58.2776 4.21117 58.0359 4.21117ZM47.3559 11.7182H45.815V4.65275C45.815 4.39389 45.6035 4.19594 45.3619 4.19594H43.2017C43.0204 4.19594 42.8542 4.22639 42.7032 4.30253C42.537 4.37867 42.4161 4.48526 42.3255 4.6223C42.3255 4.6223 37.3103 11.6116 37.1894 11.7791C37.0686 11.9466 36.9628 12.0836 36.9628 12.4491C36.9628 12.6166 36.9628 13.652 36.9628 13.652V13.8957C36.9628 14.1545 37.1592 14.3525 37.416 14.3525H42.8844V16.5604C42.8844 16.8041 43.0959 17.0172 43.3376 17.0172H45.3467C45.5884 17.0172 45.7999 16.8041 45.7999 16.5604V14.3525H47.3408C47.5825 14.3525 47.7939 14.1545 47.7939 13.8957V12.175C47.809 11.9161 47.5976 11.7182 47.3559 11.7182ZM40.2409 11.7791L42.9751 7.88092V11.7943H40.2409V11.7791ZM35.8752 14.3373H35.7241C35.6939 14.3373 35.6637 14.322 35.6184 14.322H31.3584L33.3071 12.3273C34.2286 11.5964 34.9235 10.8959 35.3767 10.2411C35.845 9.55591 36.0716 8.79455 36.0716 7.95706C36.0716 7.1957 35.8903 6.51047 35.5428 5.91661C35.1954 5.30752 34.6667 4.83548 33.9718 4.48526C33.292 4.15026 32.4612 3.98276 31.4944 3.98276C30.5578 3.98276 29.727 4.18071 29.0321 4.56139C28.3372 4.9573 27.7934 5.47502 27.4157 6.11457C27.0381 6.75411 26.8417 7.43933 26.8115 8.18547C26.8115 8.24637 26.8115 8.36819 26.8115 8.36819C26.8115 8.62705 27.0079 8.82501 27.2647 8.82501H29.3342C29.7119 8.82501 29.7723 8.29206 29.7874 8.21592V8.18547C29.8629 7.69819 30.0442 7.30229 30.3312 6.99774C30.6031 6.70843 30.9959 6.57138 31.4944 6.57138C32.008 6.57138 32.3857 6.70843 32.6123 6.95206C32.854 7.21093 32.9748 7.57638 32.9748 8.06365C32.9748 8.35296 32.8842 8.64228 32.6878 8.94683C32.4763 9.28182 32.1591 9.64728 31.7361 10.0432C31.298 10.4543 30.6636 10.9873 29.8478 11.6268L29.8327 11.642L27.1287 14.3525C26.7813 14.6266 26.6 14.9768 26.6 15.3879V16.5452C26.6 16.7888 26.8115 17.002 27.0532 17.002H35.8752C36.1169 17.002 36.3284 16.7888 36.3284 16.5452V14.7941C36.3284 14.5504 36.132 14.3373 35.8752 14.3373Z"/></g></svg>