<?xml version="1.0" encoding="UTF-8"?>
<!DOCTYPE svg PUBLIC "-//W3C//DTD SVG 1.1//EN" "http://www.w3.org/Graphics/SVG/1.1/DTD/svg11.dtd">
<!-- Creator: CorelDRAW 2020 (64-Bit) -->
<svg xmlns="http://www.w3.org/2000/svg" xml:space="preserve" width="10.1598mm" height="10.1598mm" version="1.1" style="shape-rendering:geometricPrecision; text-rendering:geometricPrecision; image-rendering:optimizeQuality; fill-rule:evenodd; clip-rule:evenodd"
viewBox="0 0 1015.98 1015.98"
 xmlns:xlink="http://www.w3.org/1999/xlink"
 xmlns:xodm="http://www.corel.com/coreldraw/odm/2003">
 <defs>
  <style type="text/css">
   <![CDATA[
    .fil0 {fill:#EF7F1A}
    .fil1 {fill:#FEFEFE;fill-rule:nonzero}
   ]]>
  </style>
 </defs>
 <g id="Слой_x0020_1">
  <metadata id="CorelCorpID_0Corel-Layer"/>
  <polygon class="fil0" points="-0.02,0 1015.98,0 1015.98,1016 -0.02,1016 "/>
  <path class="fil1" d="M376.09 948.02l0 -557.83 266.18 0 0 557.83 -266.18 0zm131.92 -861.82l0 0c39.94,0 74.31,13.06 103.1,39.14 28.82,25.99 43.18,56.56 43.18,91.44 0,35.07 -14.36,65.57 -43.18,91.61 -28.79,26.05 -63.16,39.02 -103.1,39.02 -40,0 -74.41,-12.97 -103.15,-39.02 -28.77,-26.04 -43.2,-56.54 -43.2,-91.61 0,-34.88 14.43,-65.45 43.2,-91.44 28.74,-26.08 63.15,-39.14 103.15,-39.14z"/>
 </g>
</svg>
