<?xml version="1.0" encoding="UTF-8"?>
<!-- Generated by Pixelmator Pro 3.5.6 -->
<svg width="27" height="27" viewBox="0 0 27 27" xmlns="http://www.w3.org/2000/svg">
    <g id="x00201">
        <path id="path1" fill="#f59500" stroke="none" d="M 17.632629 25.585205 L 17.632629 22.735779 L 20.584778 22.735779 L 17.632629 25.585205 Z M 20.605225 21.627258 L 17.078186 21.627258 C 16.931885 21.627258 16.789795 21.686218 16.686584 21.789429 C 16.583069 21.892578 16.523743 22.035461 16.523743 22.181335 L 16.523743 25.565552 L 3.11319 25.565552 L 3.11319 1.824097 L 20.605225 1.824097 L 20.605225 11.111938 L 21.713745 9.852173 L 21.713745 1.269653 C 21.713745 1.123718 21.654419 0.981201 21.551636 0.877686 C 21.448059 0.774902 21.305176 0.715576 21.159302 0.715576 L 2.559113 0.715576 C 2.412476 0.715576 2.270386 0.774902 2.166809 0.877686 C 2.063599 0.981201 2.004669 1.123718 2.004669 1.269653 L 2.004669 26.120056 C 2.004669 26.265869 2.063599 26.408752 2.166809 26.511963 C 2.270386 26.615112 2.412476 26.674133 2.559113 26.674133 L 17.771362 26.674133 C 17.917236 26.674133 18.058594 26.615845 18.161804 26.513062 L 19.870483 24.815308 L 19.872742 24.813049 L 21.552002 23.126953 C 21.655151 23.023376 21.713745 22.881287 21.713745 22.735779 L 21.713745 12.883728 L 20.605225 14.143799 L 20.605225 21.627258 Z"/>
        <path id="path2" fill="#f59500" stroke="none" d="M 7.096802 9.064453 L 18.525757 9.064453 L 18.525757 7.418884 L 7.096802 7.418884 Z"/>
        <path id="path3" fill="#f59500" stroke="none" d="M 5.147369 11.792969 L 18.525757 11.792969 L 18.525757 10.147705 L 5.147369 10.147705 Z"/>
        <path id="path4" fill="#f59500" stroke="none" d="M 5.147369 12.875793 L 5.147369 14.521729 L 17.605042 14.521729 L 18.525757 13.474854 L 18.525757 12.875793 Z"/>
        <path id="path5" fill="#f59500" stroke="none" d="M 24.570679 9.219116 L 23.481812 8.260559 C 23.43158 8.215637 23.366577 8.191406 23.299622 8.191406 L 23.282288 8.191772 C 23.208557 8.19635 23.140503 8.230042 23.092529 8.285156 L 21.713745 9.852173 L 20.605225 11.111938 L 18.525757 13.474854 L 17.605042 14.521729 L 16.624634 15.63562 L 15.203857 17.250183 L 14.891724 17.605103 L 14.565552 17.250183 L 13.909027 16.534729 C 13.872009 16.49469 13.824768 16.46637 13.772217 16.453064 L 11.227844 15.826416 L 11.161713 15.818542 C 11.066071 15.818542 10.974976 15.868774 10.924713 15.953857 C 10.862366 16.058533 10.876343 16.191162 10.958374 16.281128 L 11.448944 16.815552 L 11.847687 17.250183 L 14.169434 19.780212 C 14.358459 19.986206 14.627502 20.104553 14.907593 20.104553 C 15.201294 20.101501 15.471497 19.977844 15.659363 19.764709 L 20.605225 14.143799 L 21.713745 12.883728 L 24.596008 9.607971 C 24.69696 9.493896 24.685608 9.31958 24.570679 9.219116 Z"/>
    </g>
</svg>
