<?xml version="1.0" encoding="UTF-8"?>
<!DOCTYPE svg PUBLIC "-//W3C//DTD SVG 1.1//EN" "http://www.w3.org/Graphics/SVG/1.1/DTD/svg11.dtd">
<!-- Creator: CorelDRAW 2020 (64-Bit) -->
<svg xmlns="http://www.w3.org/2000/svg" xml:space="preserve" width="12mm" height="12mm" version="1.1" style="shape-rendering:geometricPrecision; text-rendering:geometricPrecision; image-rendering:optimizeQuality; fill-rule:evenodd; clip-rule:evenodd"
viewBox="0 0 1200 1200"
 xmlns:xlink="http://www.w3.org/1999/xlink"
 xmlns:xodm="http://www.corel.com/coreldraw/odm/2003">
 <defs>
  <style type="text/css">
   <![CDATA[
    .str0 {stroke:#FEFEFE;stroke-width:7.14;stroke-miterlimit:10}
    .fil0 {fill:#F59500;fill-rule:nonzero}
    .fil1 {fill:white;fill-rule:nonzero}
   ]]>
  </style>
 </defs>
 <g id="Слой_x0020_1">
  <metadata id="CorelCorpID_0Corel-Layer"/>
  <path class="fil0" d="M8.04 604.02c0,324.64 263.2,587.85 587.81,587.85 324.64,0 587.81,-263.21 587.81,-587.85 0,-324.6 -263.17,-587.77 -587.81,-587.77 -324.61,0 -587.81,263.17 -587.81,587.77z"/>
  <path class="fil1 str0" d="M464.86 735.43l-6.94 -2.92c-3.63,-3.76 -3.3,-9.71 0.33,-13.24 36.35,-34.59 84.25,-53.65 134.47,-53.65 49.89,0 97.46,18.9 133.81,53.22 3.96,3.57 3.96,9.48 0.33,13.25 -3.31,3.77 -9.25,3.93 -13.22,0.36 -32.71,-31.02 -75.66,-48.14 -120.92,-48.14 -45.59,0 -88.54,17.25 -121.58,48.54l-6.28 2.58z"/>
  <path class="fil1 str0" d="M378.62 641.66l-6.6 -2.9c-3.63,-3.78 -3.63,-9.66 0.33,-13.26 59.47,-56.79 138.1,-88.08 220.37,-88.08 82.26,0 160.24,31.06 220.04,87.42 3.63,3.54 3.97,9.45 0.34,13.21 -3.65,3.74 -9.59,3.94 -13.23,0.37 -56.16,-53.06 -129.84,-82.27 -207.15,-82.27 -77.64,0 -151.32,29.44 -207.48,82.93l-6.62 2.58z"/>
  <path class="fil1 str0" d="M319.15 542.57l-6.6 -2.9c-3.63,-3.74 -3.63,-9.65 0.33,-13.21 75.66,-72.16 175.43,-111.94 280.18,-111.94 104.06,0 203.18,39.45 279.17,111.04 3.63,3.54 3.97,9.48 0.34,13.22 -3.65,3.73 -9.59,3.92 -13.23,0.39 -72.34,-68.33 -166.84,-105.89 -266.28,-105.89 -100.12,0 -194.94,37.9 -267.29,106.72l-6.62 2.57z"/>
  <path class="fil1 str0" d="M260.68 443.29l-6.94 -2.87c-3.31,-3.77 -3.31,-9.68 0.33,-13.25 91.85,-87.26 212.11,-135.33 338.99,-135.33 126.2,0 246.13,47.71 337.65,134.27 3.63,3.54 3.97,9.45 0.34,13.22 -3.64,3.76 -9.59,3.93 -13.22,0.36 -88.22,-83.23 -203.53,-129.08 -324.77,-129.08 -121.92,0 -237.56,46.19 -326.11,130.11l-6.27 2.57z"/>
  <path class="fil1 str0" d="M592.39 796.45c-24.12,0 -43.94,19.73 -43.94,43.91 0,24.18 19.82,43.87 43.94,43.87 24.12,0 43.94,-19.69 43.94,-43.87 0,-24.18 -19.82,-43.91 -43.94,-43.91zm0 106.52c-34.36,0 -62.45,-28.12 -62.45,-62.61 0,-34.52 28.09,-62.61 62.45,-62.61 34.69,0 62.78,28.09 62.78,62.61 0,34.49 -28.09,62.61 -62.78,62.61z"/>
 </g>
</svg>
