<?xml version="1.0" encoding="UTF-8"?>
<!DOCTYPE svg PUBLIC "-//W3C//DTD SVG 1.1//EN" "http://www.w3.org/Graphics/SVG/1.1/DTD/svg11.dtd">
<!-- Creator: CorelDRAW 2020 (64-Bit) -->
<svg xmlns="http://www.w3.org/2000/svg" xml:space="preserve" width="12mm" height="12mm" version="1.1" style="shape-rendering:geometricPrecision; text-rendering:geometricPrecision; image-rendering:optimizeQuality; fill-rule:evenodd; clip-rule:evenodd"
viewBox="0 0 1200 1200"
 xmlns:xlink="http://www.w3.org/1999/xlink"
 xmlns:xodm="http://www.corel.com/coreldraw/odm/2003">
 <defs>
  <style type="text/css">
   <![CDATA[
    .str0 {stroke:#FEFEFE;stroke-width:7.41;stroke-miterlimit:10}
    .fil0 {fill:#F59500;fill-rule:nonzero}
    .fil1 {fill:white;fill-rule:nonzero}
   ]]>
  </style>
 </defs>
 <g id="Слой_x0020_1">
  <metadata id="CorelCorpID_0Corel-Layer"/>
  <path class="fil0" d="M13.38 604.96c0,324.64 263.2,587.85 587.81,587.85 324.64,0 587.81,-263.21 587.81,-587.85 0,-324.6 -263.17,-587.77 -587.81,-587.77 -324.61,0 -587.81,263.17 -587.81,587.77z"/>
  <path class="fil1 str0" d="M952.82 446.28l-455.77 0c-5.39,0 -9.75,-4.36 -9.75,-9.74 0,-5.35 4.36,-9.7 9.75,-9.7l455.77 0c5.39,0 9.7,4.35 9.7,9.7 0,5.38 -4.31,9.74 -9.7,9.74z"/>
  <path class="fil1 str0" d="M426.57 446.28l-170.32 0c-5.35,0 -9.71,-4.36 -9.71,-9.74 0,-5.35 4.36,-9.7 9.71,-9.7l170.32 0c5.35,0 9.7,4.35 9.7,9.7 0,5.38 -4.35,9.74 -9.7,9.74z"/>
  <path class="fil1 str0" d="M952.82 621.98l-178.8 0c-5.34,0 -9.7,-4.32 -9.7,-9.7 0,-5.35 4.36,-9.71 9.7,-9.71l178.8 0c5.39,0 9.7,4.36 9.7,9.71 0,5.38 -4.31,9.7 -9.7,9.7z"/>
  <path class="fil1 str0" d="M724.92 621.98l-468.67 0c-5.35,0 -9.71,-4.32 -9.71,-9.7 0,-5.35 4.36,-9.71 9.71,-9.71l468.67 0c5.41,0 9.74,4.36 9.74,9.71 0,5.38 -4.33,9.7 -9.74,9.7z"/>
  <path class="fil1 str0" d="M952.82 797.72l-477.69 0c-5.34,0 -9.71,-4.36 -9.71,-9.7 0,-5.35 4.37,-9.71 9.71,-9.71l477.69 0c5.39,0 9.7,4.36 9.7,9.71 0,5.34 -4.31,9.7 -9.7,9.7z"/>
  <path class="fil1 str0" d="M426.57 797.72l-170.32 0c-5.35,0 -9.71,-4.36 -9.71,-9.7 0,-5.35 4.36,-9.71 9.71,-9.71l170.32 0c5.35,0 9.7,4.36 9.7,9.71 0,5.34 -4.35,9.7 -9.7,9.7z"/>
  <path class="fil1 str0" d="M426.57 524.34c-5.38,0 -9.74,-4.36 -9.74,-9.7l0 -172.55c0,-5.39 4.36,-9.71 9.74,-9.71 5.35,0 9.7,4.32 9.7,9.71l0 172.55c0,5.34 -4.35,9.7 -9.7,9.7z"/>
  <path class="fil1 str0" d="M426.57 884.01c-5.38,0 -9.74,-4.36 -9.74,-9.7l0 -172.52c0,-5.41 4.36,-9.77 9.74,-9.77 5.35,0 9.7,4.36 9.7,9.77l0 172.52c0,5.34 -4.35,9.7 -9.7,9.7z"/>
  <path class="fil1 str0" d="M774.02 699.29c-5.34,0 -9.7,-4.35 -9.7,-9.74l0 -174.91c0,-5.42 4.36,-9.75 9.7,-9.75 5.39,0 9.72,4.33 9.72,9.75l0 174.91c0,5.39 -4.33,9.74 -9.72,9.74z"/>
 </g>
</svg>
