<?xml version="1.0" encoding="UTF-8"?>
<!DOCTYPE svg PUBLIC "-//W3C//DTD SVG 1.1//EN" "http://www.w3.org/Graphics/SVG/1.1/DTD/svg11.dtd">
<!-- Creator: CorelDRAW 2020 (64-Bit) -->
<svg xmlns="http://www.w3.org/2000/svg" xml:space="preserve" width="12mm" height="12mm" version="1.1" style="shape-rendering:geometricPrecision; text-rendering:geometricPrecision; image-rendering:optimizeQuality; fill-rule:evenodd; clip-rule:evenodd"
viewBox="0 0 1200 1200"
 xmlns:xlink="http://www.w3.org/1999/xlink"
 xmlns:xodm="http://www.corel.com/coreldraw/odm/2003">
 <defs>
  <style type="text/css">
   <![CDATA[
    .str0 {stroke:#FEFEFE;stroke-width:7.13;stroke-miterlimit:10}
    .fil0 {fill:#F59500;fill-rule:nonzero}
    .fil1 {fill:white;fill-rule:nonzero}
   ]]>
  </style>
 </defs>
 <g id="Слой_x0020_1">
  <metadata id="CorelCorpID_0Corel-Layer"/>
  <path class="fil0" d="M7.25 606.95c0,324.64 263.2,587.85 587.81,587.85 324.64,0 587.81,-263.21 587.81,-587.85 0,-324.6 -263.17,-587.77 -587.81,-587.77 -324.61,0 -587.81,263.17 -587.81,587.77z"/>
  <path class="fil1 str0" d="M270.12 805.4l136.2 0c5.21,0 9.41,3.96 9.41,9.25l0 114.28 132.39 -121.22 6.34 -2.31 284.31 0 0 -434.05 -568.65 0 0 434.05zm136.2 154.26l-3.74 -0.66c-3.4,-1.65 -5.62,-4.95 -5.62,-8.6l0 -126.51 -136.22 0c-5.15,0 -9.34,-3.96 -9.34,-9.24l0 -452.87c0,-4.96 4.19,-9.26 9.34,-9.26l587.38 0c5.21,0 9.38,4.3 9.38,9.26l0 452.87c0,5.28 -4.17,9.24 -9.38,9.24l-290.02 0 -145.41 133.46 -6.37 2.31z"/>
  <path class="fil1 str0" d="M930.53 775.67l-82.41 0c-5.15,0 -9.35,-4.29 -9.35,-9.25 0,-5.29 4.2,-9.58 9.35,-9.58l73.03 0 0 -449.56 -568.61 0 0 54.5c0,5.3 -4.19,9.57 -9.38,9.57 -5.19,0 -9.38,-4.27 -9.38,-9.57l0 -64.08c0,-4.95 4.19,-9.25 9.38,-9.25l587.37 0c5.19,0 9.35,4.3 9.35,9.25l0 468.72c0,4.96 -4.16,9.25 -9.35,9.25z"/>
  <path class="fil1 str0" d="M784.92 911.42l-6.31 -2.63 -95.35 -87.21c-3.81,-3.62 -4.07,-9.58 -0.57,-13.21 3.47,-3.96 9.41,-3.96 13.22,-0.66l79.67 72.99 0 -66.05c0,-5.29 4.19,-9.25 9.34,-9.25 5.23,0 9.42,3.96 9.42,9.25l0 87.52c0,3.65 -2.22,6.94 -5.62,8.6l-3.8 0.65z"/>
  <path class="fil1 str0" d="M761.54 497.86l-418.38 0c-5.19,0 -9.38,-3.95 -9.38,-9.25 0,-5.27 4.19,-9.23 9.38,-9.23l418.38 0c5.18,0 9.38,3.96 9.38,9.23 0,5.3 -4.2,9.25 -9.38,9.25z"/>
  <path class="fil1 str0" d="M761.54 581.78l-418.38 0c-5.19,0 -9.38,-4.3 -9.38,-9.25 0,-5.29 4.19,-9.59 9.38,-9.59l418.38 0c5.18,0 9.38,4.3 9.38,9.59 0,4.95 -4.2,9.25 -9.38,9.25z"/>
  <path class="fil1 str0" d="M510.36 665.34l-167.2 0c-5.19,0 -9.38,-3.96 -9.38,-9.24 0,-5.3 4.19,-9.26 9.38,-9.26l167.2 0c5.16,0 9.36,3.96 9.36,9.26 0,5.28 -4.2,9.24 -9.36,9.24z"/>
 </g>
</svg>
