<?xml version="1.0" encoding="UTF-8"?>
<!DOCTYPE svg PUBLIC "-//W3C//DTD SVG 1.1//EN" "http://www.w3.org/Graphics/SVG/1.1/DTD/svg11.dtd">
<!-- Creator: CorelDRAW 2020 (64-Bit) -->
<svg xmlns="http://www.w3.org/2000/svg" xml:space="preserve" width="12mm" height="12mm" version="1.1" style="shape-rendering:geometricPrecision; text-rendering:geometricPrecision; image-rendering:optimizeQuality; fill-rule:evenodd; clip-rule:evenodd"
viewBox="0 0 1200 1200"
 xmlns:xlink="http://www.w3.org/1999/xlink"
 xmlns:xodm="http://www.corel.com/coreldraw/odm/2003">
 <defs>
  <style type="text/css">
   <![CDATA[
    .str0 {stroke:#FEFEFE;stroke-width:7.62;stroke-miterlimit:10}
    .fil0 {fill:#F59500;fill-rule:nonzero}
    .fil1 {fill:white;fill-rule:nonzero}
   ]]>
  </style>
 </defs>
 <g id="Слой_x0020_1">
  <metadata id="CorelCorpID_0Corel-Layer"/>
  <path class="fil0" d="M5.1 601.18c0,324.64 263.2,587.85 587.81,587.85 324.64,0 587.81,-263.21 587.81,-587.85 0,-324.6 -263.17,-587.77 -587.81,-587.77 -324.61,0 -587.81,263.17 -587.81,587.77z"/>
  <path class="fil1 str0" d="M382.07 864.83c6.06,0 12.13,1.38 17.74,4.2 7.13,3.53 14.46,6.63 21.94,9.17 16.55,5.61 27.73,21.28 27.73,39.02l0 24.17 55.18 -0.74 -0.71 -23.43c0,-17.74 11.11,-33.41 27.69,-39.02 7.48,-2.54 14.86,-5.64 21.91,-9.17 15.35,-7.72 34.01,-4.62 46.36,7.73l17.56 17.57 38.53 -39.52 -17.78 -16.79c-12.28,-12.31 -15.42,-30.87 -7.8,-46.25 3.53,-7.09 6.6,-14.46 9.07,-21.9 5.57,-16.51 21.13,-27.63 38.8,-27.63l24.06 0 0 -55.17 -24.48 0.7c-17.46,0 -33.16,-11.46 -39.09,-28.5 -2.36,-6.7 -5.11,-13.3 -8.25,-19.61 -7.9,-15.99 -5.01,-34.93 7.19,-47.17l18.28 -18.28 -39.51 -38.52 -17.5 18.49c-12.17,12.17 -31.08,15.06 -47.03,7.26 -6.31,-3.1 -12.91,-5.85 -19.61,-8.14 -16.97,-5.83 -28.4,-21.45 -28.4,-38.85l0 -25.78 -55.21 0.67 0.74 25.11c0,17.4 -11.46,33.02 -28.43,38.85 -6.7,2.29 -13.3,5 -19.65,8.14 -15.95,7.84 -34.86,4.91 -47.03,-7.26l-18.45 -18.49 -38.56 39.51 18.31 17.29c12.17,12.24 15.07,31.18 7.2,47.17 -3.18,6.38 -5.93,12.94 -8.26,19.61 -5.92,17.04 -21.62,28.5 -39.08,28.5l-25.19 0 0.7 55.18 24.03 -0.71c17.71,0 33.3,11.12 38.8,27.63 2.51,7.51 5.58,14.88 9.11,21.9 7.58,15.38 4.48,33.94 -7.84,46.25l-17.78 17.78 39.52 38.53 16.61 -17.57c7.83,-7.83 18.17,-11.93 28.58,-11.93zm122.59 95.82l-55.92 0c-10.65,0 -19.3,-8.65 -19.3,-19.26l0 -24.17c0,-9.17 -5.64,-17.21 -14.07,-20.07 -8.4,-2.82 -16.62,-6.28 -24.52,-10.23 -7.66,-3.88 -17,-2.3 -23.25,3.98l-17.57 17.57c-7.26,7.3 -20,7.27 -27.27,0l-39.51 -39.51c-7.51,-7.55 -7.51,-19.79 -0.03,-27.3l17.81 -17.78c6.18,-6.21 7.8,-15.53 4.02,-23.18 -3.95,-7.83 -7.33,-16.12 -10.12,-24.48 -2.79,-8.37 -10.76,-13.97 -19.86,-13.97l-24.73 0c-10.66,0 -19.3,-8.68 -19.3,-19.3l0 -55.88c0,-10.66 8.64,-19.3 19.3,-19.3l25.19 0c9.1,0 17,-5.93 20.21,-15.06 2.58,-7.45 5.65,-14.82 9.21,-21.94 4.09,-8.26 2.72,-18 -3.42,-24.13l-18.28 -18.28c-7.51,-7.55 -7.51,-19.79 -0.03,-27.3l39.54 -39.51c7.27,-7.31 19.97,-7.31 27.27,0l18.49 18.48c6.21,6.21 15.7,7.59 24.09,3.46 7.09,-3.49 14.47,-6.53 21.91,-9.1 9.07,-3.11 14.92,-10.94 14.92,-19.94l0 -25.78c0,-10.66 8.65,-19.3 19.3,-19.3l55.92 0c10.61,0 19.29,8.64 19.29,19.3l0 25.78c0,9 5.86,16.83 14.93,19.94 7.47,2.57 14.85,5.64 21.9,9.1 8.4,4.13 17.85,2.75 24.06,-3.46l18.52 -18.48c7.27,-7.31 20.01,-7.31 27.27,0l39.51 39.51c3.64,3.67 5.68,8.5 5.68,13.65 0,5.18 -2.04,9.98 -5.68,13.65l-18.27 18.28c-6.14,6.13 -7.51,15.87 -3.42,24.16 3.53,7.02 6.63,14.39 9.21,21.91 3.21,9.13 11.11,15.06 20.21,15.06l25.19 0c10.65,0 19.3,8.64 19.3,19.3l0 55.88c0,10.62 -8.65,19.3 -19.3,19.3l-24.77 0c-9.06,0 -17.04,5.6 -19.82,13.97 -2.79,8.32 -6.18,16.58 -10.13,24.48 -3.81,7.65 -2.18,16.97 4.06,23.18l17.74 17.78c3.64,3.63 5.68,8.5 5.68,13.65 0,5.15 -2.04,9.98 -5.68,13.65l-39.51 39.51c-7.3,7.27 -20,7.3 -27.27,0l-17.6 -17.57c-6.21,-6.28 -15.59,-7.86 -23.21,-3.98 -7.91,3.95 -16.12,7.41 -24.52,10.23 -8.43,2.86 -14.08,10.9 -14.08,20.07l0 24.17c0,10.61 -8.68,19.26 -19.29,19.26z"/>
  <path class="fil1 str0" d="M476.68 596.44c-65.33,0 -118.53,53.2 -118.53,118.57 0,65.37 53.2,118.53 118.53,118.53 65.41,0 118.57,-53.16 118.57,-118.53 0,-65.37 -53.16,-118.57 -118.57,-118.57zm0 257.1c-76.38,0 -138.53,-62.12 -138.53,-138.53 0,-76.38 62.15,-138.54 138.53,-138.54 76.41,0 138.57,62.16 138.57,138.54 0,76.41 -62.16,138.53 -138.57,138.53z"/>
  <path class="fil1 str0" d="M720.63 275.66l0 0zm200.94 95.71l0.03 0 -0.03 0zm-132.33 139.8c12.35,0 23.39,7.52 27.77,18.98l4.16 11.04 25.72 -9.77 -4.24 -11.18c-4.44,-11.78 -0.81,-25.15 9.03,-33.27 3.53,-2.93 6.88,-6.1 9.99,-9.42 8.85,-9.45 22.61,-12.27 34.25,-7.05l10.69 4.8 11.29 -25.09 -10.94 -4.94c-11.57,-5.18 -18.55,-17.32 -17.39,-30.16 0.43,-4.48 0.53,-9.03 0.39,-13.54 -0.53,-12.78 7.09,-24.45 18.94,-28.9l11.54 -4.41 -9.74 -25.71 -11.71 4.44c-11.82,4.48 -25.15,0.85 -33.3,-9.03 -2.89,-3.49 -6,-6.77 -9.24,-9.81 -9.39,-8.78 -12.21,-22.47 -7.02,-34.01l5.11 -11.28 -25.08 -11.33 -5.08 11.33c-5.22,11.53 -17.36,18.48 -30.09,17.25 -4.48,-0.43 -9.07,-0.57 -13.51,-0.43 -13.13,0.39 -24.35,-7.16 -28.79,-18.94l-4.45 -11.71 -25.75 9.7 4.38 11.6c4.48,11.79 0.81,25.19 -9.07,33.34 -3.49,2.82 -6.84,5.93 -9.95,9.21 -8.82,9.38 -22.51,12.17 -34.15,6.95l-10.9 -4.94 -11.32 25.08 10.69 4.84c11.64,5.25 18.66,17.46 17.39,30.33 -0.46,4.52 -0.57,9.14 -0.43,13.76 0.43,12.74 -7.19,24.31 -18.94,28.75l-11.25 4.24 9.77 25.75 11.01 -4.16c11.85,-4.48 25.22,-0.85 33.37,9.1 2.89,3.53 6,6.91 9.38,10.05 9.49,8.93 12.31,22.72 7.02,34.4l-4.65 10.34 25.08 11.32 4.65 -10.34c5.3,-11.67 17.47,-18.76 30.48,-17.49 4.52,0.38 9.14,0.53 13.73,0.35l1.16 -0.04zm30.06 50.98c-6.74,0 -13.12,-4.13 -15.66,-10.8l-5.37 -14.11c-1.41,-3.77 -4.76,-6.35 -9.42,-6.03 -5.43,0.21 -10.97,0.04 -16.36,-0.46 -4.27,-0.39 -8.61,1.94 -10.38,5.82l-5.99 13.3c-3.78,8.4 -13.66,12.17 -22.09,8.36l-31.11 -14c-4.06,-1.84 -7.16,-5.12 -8.75,-9.31 -1.59,-4.17 -1.45,-8.72 0.42,-12.78l6 -13.33c1.76,-3.85 0.74,-8.54 -2.54,-11.61 -3.95,-3.77 -7.69,-7.76 -11.15,-11.96 -2.68,-3.28 -6.98,-4.48 -10.79,-3.06l-14.11 5.32c-4.17,1.59 -8.68,1.45 -12.78,-0.39 -4.09,-1.83 -7.16,-5.15 -8.74,-9.31l-12.07 -31.86c-3.28,-8.6 1.09,-18.3 9.67,-21.55l14.32 -5.4c3.74,-1.44 6.17,-5.18 6.03,-9.42 -0.14,-5.5 -0.03,-10.97 0.53,-16.33 0.42,-4.37 -1.9,-8.5 -5.71,-10.23l-13.69 -6.14c-8.4,-3.81 -12.14,-13.69 -8.36,-22.08l14 -31.08c3.81,-8.4 13.69,-12.17 22.09,-8.36l13.97 6.24c3.81,1.73 8.36,0.74 11.36,-2.43 3.7,-3.88 7.65,-7.59 11.78,-10.97 3.28,-2.69 4.51,-7.03 3.07,-10.8l-5.54 -14.6c-1.55,-4.17 -1.41,-8.72 0.42,-12.81 1.8,-4.06 5.12,-7.2 9.28,-8.75l31.93 -12.06c4.16,-1.59 8.71,-1.45 12.73,0.35 4.09,1.87 7.2,5.18 8.79,9.35l5.61 14.78c1.41,3.77 5.15,6.21 9.42,6.07 5.36,-0.18 10.72,0 16.08,0.45 4.24,0.5 8.26,-1.79 9.95,-5.57l6.46 -14.29c3.77,-8.36 13.65,-12.13 22.08,-8.36l31.08 14.01c4.09,1.83 7.16,5.15 8.75,9.31 1.59,4.2 1.44,8.75 -0.39,12.81l-6.42 14.25c-1.73,3.77 -0.71,8.29 2.4,11.22 3.88,3.6 7.58,7.55 11.01,11.71 2.71,3.25 7.05,4.44 10.79,3.03l14.82 -5.57c4.12,-1.59 8.71,-1.48 12.77,0.35 4.05,1.84 7.16,5.15 8.75,9.35l12.06 31.86c1.59,4.16 1.45,8.71 -0.39,12.8 -1.83,4.06 -5.15,7.16 -9.35,8.75l-14.6 5.54c-3.77,1.41 -6.21,5.22 -6.07,9.42 0.21,5.43 0.07,10.83 -0.39,16.12 -0.38,4.34 1.87,8.43 5.72,10.16l13.9 6.25c8.43,3.81 12.17,13.72 8.39,22.11l-14.04 31.08c-1.83,4.06 -5.11,7.17 -9.31,8.75 -4.16,1.59 -8.71,1.45 -12.77,-0.38l-13.69 -6.14c-3.81,-1.73 -8.43,-0.78 -11.43,2.47 -3.63,3.91 -7.65,7.72 -11.89,11.18 -3.24,2.68 -4.48,6.98 -3.03,10.79l5.43 14.26c3.21,8.6 -1.13,18.31 -9.73,21.55l-31.9 12.07 -5.85 1.09z"/>
  <path class="fil1 str0" d="M784.37 346.14c-7.02,0 -14.11,1.27 -20.88,3.85 -14.75,5.54 -26.42,16.54 -32.88,30.9 -6.46,14.33 -6.98,30.34 -1.41,45.09 5.57,14.71 16.58,26.39 30.94,32.88 29.6,13.33 64.59,0.1 77.93,-29.53 6.49,-14.36 6.98,-30.38 1.41,-45.09 -5.58,-14.71 -16.55,-26.38 -30.91,-32.87 -7.72,-3.5 -15.94,-5.23 -24.2,-5.23zm-0.14 137.9c-10.83,0 -21.8,-2.25 -32.31,-6.98 -19.23,-8.64 -33.94,-24.27 -41.38,-44.03 -7.48,-19.68 -6.81,-41.17 1.83,-60.36 8.68,-19.22 24.31,-33.9 44.03,-41.38 19.72,-7.48 41.17,-6.84 60.39,1.84 19.23,8.67 33.94,24.3 41.42,43.99 7.41,19.75 6.77,41.2 -1.87,60.43 -13.16,29.21 -42.02,46.49 -72.11,46.49z"/>
 </g>
</svg>
