<svg id="Слой_1" data-name="Слой 1" xmlns="http://www.w3.org/2000/svg" viewBox="0 0 82.66 82.66"><title>2</title><g id="Слой_1-2" data-name="Слой_1"><path d="M473.39,308.84a41.33,41.33,0,1,0,41.32-41.32A41.32,41.32,0,0,0,473.39,308.84Z" transform="translate(-473.39 -267.52)" style="fill:#f59500"/><path d="M504.81,305.09c2.13-1.19,2.52-1.45,2.58-1.49l.11-.06a.58.58,0,0,0,.21-.79l-6-10.42a.57.57,0,0,0-.79-.21,26.72,26.72,0,0,0-5.84,3.72,10.45,10.45,0,0,0-3.13,9.2c.49,4.12,6.18,13.46,6.18,13.46s5.24,9.6,8.57,12.09a10.42,10.42,0,0,0,9.52,1.89,27,27,0,0,0,6.16-3.2.59.59,0,0,0,.21-.79l-6-10.43a.59.59,0,0,0-.79-.21l-.09.08s-.5.23-2.59,1.48c-2.67,1.58-2.74,3.06-2.74,3.06-1.24-.76-5.23-8-5.23-8s-4.28-7.08-4.32-8.53c0,0,1.38.64,4-.84Z" transform="translate(-473.39 -267.52)" style="fill:#f59500"/><path d="M501.11,292.88a25.53,25.53,0,0,0-5.53,3.53,9.74,9.74,0,0,0-2.89,8.54c.47,3.91,6,13.06,6.08,13.15s5.22,9.51,8.37,11.87a9.71,9.71,0,0,0,8.83,1.77,25.64,25.64,0,0,0,5.83-3L516,318.64c-.08,0-.65.32-2.52,1.43-2.19,1.3-2.36,2.45-2.36,2.46a.79.79,0,0,1-.44.62.81.81,0,0,1-.74,0c-1.3-.81-4.54-6.55-5.5-8.3s-4.37-7.34-4.41-8.88a.74.74,0,0,1,.35-.66.77.77,0,0,1,.75-.06h0s1.17.38,3.31-.82c.85-.47,2-1.1,2.51-1.44l-5.83-10.09Zm12.16,40.83a11.81,11.81,0,0,1-7-2.5c-3.43-2.56-8.57-11.94-8.79-12.34s-5.77-9.49-6.27-13.74a11.19,11.19,0,0,1,3.37-9.86,26.83,26.83,0,0,1,6.05-3.85,1.22,1.22,0,0,1,.61-.15,1.34,1.34,0,0,1,1.17.67l6,10.43a1.35,1.35,0,0,1-.5,1.84l-.1.06c-.47.29-1.33.79-2.59,1.5a7.75,7.75,0,0,1-3.33,1.07,74.07,74.07,0,0,0,3.92,7.22,73,73,0,0,0,4.3,7,7.46,7.46,0,0,1,2.6-2.33c1.6-.95,2.29-1.32,2.54-1.45l.16-.11a1.39,1.39,0,0,1,1.84.5l6,10.42a1.36,1.36,0,0,1-.5,1.85,27.51,27.51,0,0,1-6.3,3.27,10.8,10.8,0,0,1-3.17.49Z" transform="translate(-473.39 -267.52)" style="fill:#fff"/><path d="M519,314.16a2.11,2.11,0,0,1-.26-1.17,10.76,10.76,0,0,0-6.07-10.51,2,2,0,0,1,1.77-3.68,14.82,14.82,0,0,1,8.37,14.49,2,2,0,0,1-3.81.87Z" transform="translate(-473.39 -267.52)" style="fill:#f59500"/><path d="M513.54,299.37a1.27,1.27,0,0,0-.56,2.41,11.52,11.52,0,0,1,6.51,11.27,1.27,1.27,0,0,0,1.17,1.35h.09a1.27,1.27,0,0,0,1.26-1.18,14,14,0,0,0-7.92-13.73,1.34,1.34,0,0,0-.55-.13ZM520.75,316h-.21a2.82,2.82,0,0,1-2.6-3,10,10,0,0,0-5.63-9.77,2.72,2.72,0,0,1-1.43-1.6,2.79,2.79,0,0,1,.12-2.16,2.84,2.84,0,0,1,2.54-1.58,2.76,2.76,0,0,1,1.22.28,15.57,15.57,0,0,1,8.8,15.24,2.83,2.83,0,0,1-2.81,2.61Z" transform="translate(-473.39 -267.52)" style="fill:#fff"/><path d="M526.38,314.6a2,2,0,0,1-.27-1.16A18,18,0,0,0,516,295.85a2,2,0,1,1,1.78-3.67,22,22,0,0,1,12.44,21.55,2,2,0,0,1-3.8.87Z" transform="translate(-473.39 -267.52)" style="fill:#f59500"/><path d="M516.85,292.75a1.27,1.27,0,0,0-1.2,1.68,1.22,1.22,0,0,0,.65.72,18.74,18.74,0,0,1,10.58,18.34,1.24,1.24,0,0,0,.17.73,1.26,1.26,0,0,0,1,.63h.1a1.27,1.27,0,0,0,1.26-1.18,21.25,21.25,0,0,0-12-20.79,1.17,1.17,0,0,0-.55-.13Zm11.3,23.65h-.21a2.8,2.8,0,0,1-2.23-1.4,2.76,2.76,0,0,1-.37-1.61,17.2,17.2,0,0,0-9.72-16.83,2.84,2.84,0,0,1-1.43-1.61,2.77,2.77,0,0,1,.12-2.15,2.83,2.83,0,0,1,2.54-1.59,2.7,2.7,0,0,1,1.22.28A22.78,22.78,0,0,1,531,313.79a2.82,2.82,0,0,1-2.8,2.61Z" transform="translate(-473.39 -267.52)" style="fill:#fff"/><path d="M533.77,315.05a2,2,0,0,1-.27-1.17,25.17,25.17,0,0,0-14.23-24.65,2,2,0,1,1,1.78-3.68,29.23,29.23,0,0,1,16.52,28.63,2,2,0,0,1-3.8.87Z" transform="translate(-473.39 -267.52)" style="fill:#f59500"/><path d="M520.16,286.12a1.26,1.26,0,0,0-1.14.72,1.21,1.21,0,0,0,0,1,1.26,1.26,0,0,0,.64.72,26,26,0,0,1,14.67,25.41,1.25,1.25,0,0,0,1.17,1.35h.09a1.27,1.27,0,0,0,1.26-1.17,28.48,28.48,0,0,0-16.09-27.87A1.31,1.31,0,0,0,520.16,286.12Zm15.38,30.72h-.2a2.86,2.86,0,0,1-2.24-1.4,2.89,2.89,0,0,1-.37-1.62,24.41,24.41,0,0,0-13.79-23.9,2.77,2.77,0,0,1-1.44-1.6,2.89,2.89,0,0,1,.12-2.16,2.86,2.86,0,0,1,2.54-1.59,2.91,2.91,0,0,1,1.23.28,30,30,0,0,1,17,29.38,2.82,2.82,0,0,1-2.81,2.61Z" transform="translate(-473.39 -267.52)" style="fill:#fff"/><path d="M520.41,331.28a.76.76,0,0,1-.66-.37L513,319.48a.77.77,0,1,1,1.33-.79l6.79,11.42a.78.78,0,0,1-.27,1.07.79.79,0,0,1-.4.1Z" transform="translate(-473.39 -267.52)" style="fill:#fff"/><path d="M505.18,305.64a.76.76,0,0,1-.66-.37l-6.79-11.42a.78.78,0,0,1,1.34-.79l6.78,11.41a.8.8,0,0,1-.27,1.07A.82.82,0,0,1,505.18,305.64Z" transform="translate(-473.39 -267.52)" style="fill:#fff"/></g></svg>