<svg id="Слой_1" data-name="Слой 1" xmlns="http://www.w3.org/2000/svg" viewBox="0 0 82.66 82.66"><title>3</title><g id="Слой_1-2" data-name="Слой_1"><path d="M333.79,231.25a41.33,41.33,0,1,0,41.33-41.33,41.33,41.33,0,0,0-41.33,41.33Z" transform="translate(-333.79 -189.92)" style="fill:#f59500"/><path d="M397.72,243.52a9.4,9.4,0,0,0,3.1-6.78c0-6-6.25-10.79-13.95-10.79s-13.95,4.83-13.95,10.79,6.24,10.79,13.95,10.79a17.6,17.6,0,0,0,5.56-.89l7.25,3.17Z" transform="translate(-333.79 -189.92)" style="fill:#f59500"/><path d="M392.43,245.88a.8.8,0,0,1,.3.06l5.73,2.51L397,243.74a.79.79,0,0,1,.2-.77,8.55,8.55,0,0,0,2.87-6.23c0-5.53-5.92-10-13.19-10s-13.19,4.5-13.19,10,5.92,10,13.19,10a16.61,16.61,0,0,0,5.32-.86.64.64,0,0,1,.24,0Zm7.25,4.69a.85.85,0,0,1-.31-.06l-7-3.06a18.19,18.19,0,0,1-5.52.84c-8.11,0-14.71-5.18-14.71-11.55s6.6-11.55,14.71-11.55,14.71,5.19,14.71,11.55a10,10,0,0,1-3,7l1.82,5.86a.76.76,0,0,1-.21.79.77.77,0,0,1-.51.19Z" transform="translate(-333.79 -189.92)" style="fill:#fff"/><path d="M383.06,236.5a2,2,0,1,1-2-2A2,2,0,0,1,383.06,236.5Z" transform="translate(-333.79 -189.92)" style="fill:#f59500"/><path d="M381.08,235.28a1.22,1.22,0,1,0,1.22,1.22A1.22,1.22,0,0,0,381.08,235.28Zm0,3.95a2.74,2.74,0,1,1,2.73-2.73A2.74,2.74,0,0,1,381.08,239.23Z" transform="translate(-333.79 -189.92)" style="fill:#fff"/><path d="M388.84,236.5a2,2,0,1,1-2-2A2,2,0,0,1,388.84,236.5Z" transform="translate(-333.79 -189.92)" style="fill:#f59500"/><path d="M386.87,235.28a1.22,1.22,0,1,0,0,2.43,1.22,1.22,0,0,0,0-2.43Zm0,3.95a2.74,2.74,0,1,1,2.73-2.73A2.74,2.74,0,0,1,386.87,239.23Z" transform="translate(-333.79 -189.92)" style="fill:#fff"/><path d="M394.63,236.5a2,2,0,1,1-2-2A2,2,0,0,1,394.63,236.5Z" transform="translate(-333.79 -189.92)" style="fill:#f59500"/><path d="M392.66,235.28a1.22,1.22,0,1,0,0,2.43,1.22,1.22,0,0,0,0-2.43Zm0,3.95a2.74,2.74,0,1,1,2.73-2.73A2.74,2.74,0,0,1,392.66,239.23Z" transform="translate(-333.79 -189.92)" style="fill:#fff"/><path d="M357,220a23.24,23.24,0,0,0-5,3.21,8.09,8.09,0,0,0-.65.67,9,9,0,0,0-2,7.1c.43,3.57,5.51,11.94,5.56,12s4.77,8.7,7.65,10.85a8.82,8.82,0,0,0,8,1.61,23.92,23.92,0,0,0,5.29-2.73l-5.28-9.15c-.16.09-.74.39-2.26,1.29-2,1.17-2.14,2.21-2.14,2.21a.77.77,0,0,1-1.15.59c-1.21-.75-4.17-6-5.05-7.61s-4-6.74-4.05-8.16a.76.76,0,0,1,1.07-.71h0a1.78,1.78,0,0,0,.49.06h0a5.25,5.25,0,0,0,2.5-.8c1.08-.61,1.84-1,2.26-1.3L357,220Zm11.15,37.37a10.88,10.88,0,0,1-6.49-2.29c-3.14-2.35-7.86-10.95-8.06-11.31s-5.28-8.71-5.75-12.61a10.52,10.52,0,0,1,2.35-8.28,7.92,7.92,0,0,1,.76-.78,25.33,25.33,0,0,1,5.55-3.55,1.21,1.21,0,0,1,.58-.14,1.27,1.27,0,0,1,1.11.65l5.52,9.54a1.25,1.25,0,0,1,.12,1,1.27,1.27,0,0,1-.6.78l-.09.05c-.45.28-1.24.74-2.37,1.37a7,7,0,0,1-3,1,69.83,69.83,0,0,0,3.55,6.54,70,70,0,0,0,3.9,6.36,7,7,0,0,1,2.36-2.1c1.44-.85,2.08-1.19,2.32-1.32l.15-.1a1.32,1.32,0,0,1,1.75.47l5.51,9.55a1.3,1.3,0,0,1-.46,1.75,25.11,25.11,0,0,1-5.8,3A9.66,9.66,0,0,1,368.12,257.36Z" transform="translate(-333.79 -189.92)" style="fill:#fff"/><path d="M374.66,255.14a.75.75,0,0,1-.65-.37l-6.22-10.46a.76.76,0,1,1,1.31-.77L375.31,254a.75.75,0,0,1-.26,1,.78.78,0,0,1-.39.1Z" transform="translate(-333.79 -189.92)" style="fill:#fff"/><path d="M360.72,231.67a.76.76,0,0,1-.66-.37l-6.21-10.45a.78.78,0,0,1,.27-1,.77.77,0,0,1,1,.27l6.21,10.45a.76.76,0,0,1-.27,1,.67.67,0,0,1-.38.11Z" transform="translate(-333.79 -189.92)" style="fill:#fff"/><path d="M367.33,227.74a11.87,11.87,0,0,1-3.11-7.94c0-7,6.27-12.64,14-12.64s14,5.66,14,12.64-6.27,12.65-14,12.65a15.26,15.26,0,0,1-5.58-1l-7.28,3.72,2-7.38Z" transform="translate(-333.79 -189.92)" style="fill:#f59500"/><path d="M378.23,207.92c-7.31,0-13.25,5.33-13.25,11.88a11,11,0,0,0,2.92,7.43.79.79,0,0,1,.17.71l-1.53,5.72,5.76-2.94a.75.75,0,0,1,.62,0,14.55,14.55,0,0,0,5.31,1c7.3,0,13.24-5.33,13.24-11.89s-5.94-11.88-13.24-11.88Zm-12.86,28a.76.76,0,0,1-.48-.17.75.75,0,0,1-.26-.79l1.86-7a12.66,12.66,0,0,1-3-8.13c0-7.39,6.63-13.4,14.77-13.4s14.76,6,14.76,13.4-6.62,13.41-14.76,13.41a16,16,0,0,1-5.54-1l-7,3.56a.72.72,0,0,1-.34.09Z" transform="translate(-333.79 -189.92)" style="fill:#fff"/><path d="M376.29,226.77a1.16,1.16,0,0,1,1.24-1.27,1.29,1.29,0,0,1,.93.34,1.38,1.38,0,0,1,0,1.84,1.26,1.26,0,0,1-.93.35,1.23,1.23,0,0,1-.91-.35A1.27,1.27,0,0,1,376.29,226.77Zm.43-2.86a1.64,1.64,0,0,1,0-.23v-.24a4.42,4.42,0,0,1,.27-1.61,6,6,0,0,1,.68-1.28,11.41,11.41,0,0,1,.87-1.08c.31-.33.6-.67.87-1a5.32,5.32,0,0,0,.67-1.09,2.9,2.9,0,0,0,.28-1.31,2.36,2.36,0,0,0-.58-1.64,2.53,2.53,0,0,0-1.93-.63,5,5,0,0,0-1.59.27,6.91,6.91,0,0,0-1.39.65l-.59-1.35a8.06,8.06,0,0,1,1.74-.8,7.74,7.74,0,0,1,2.27-.29,4.87,4.87,0,0,1,1.69.27,3.36,3.36,0,0,1,1.21.75,3,3,0,0,1,.73,1.13,4,4,0,0,1,.24,1.4,4.42,4.42,0,0,1-.29,1.7,5.91,5.91,0,0,1-.74,1.33,10.46,10.46,0,0,1-1,1.12,14.26,14.26,0,0,0-1,1.1,6.61,6.61,0,0,0-.74,1.26,4,4,0,0,0-.29,1.58Z" transform="translate(-333.79 -189.92)" style="fill:#fff"/></g></svg>