<svg id="Слой_1" data-name="Слой 1" xmlns="http://www.w3.org/2000/svg" viewBox="0 0 82.66 82.66"><title>1</title><g id="Слой_1-2" data-name="Слой_1"><path d="M81.5,308.48a41.33,41.33,0,1,0,41.33-41.32A41.33,41.33,0,0,0,81.5,308.48Z" transform="translate(-81.5 -267.16)" style="fill:#f59500"/><polygon points="24.77 62.91 33.52 62.91 33.52 58.7 24.77 58.7 24.77 62.91" style="fill:#f59500"/><path d="M107.06,329.27h7.17v-2.63h-7.17Zm8,1.58h-8.75a.79.79,0,0,1-.8-.79v-4.21a.79.79,0,0,1,.8-.79H115a.79.79,0,0,1,.8.79v4.21A.79.79,0,0,1,115,330.85Z" transform="translate(-81.5 -267.16)" style="fill:#fff"/><polygon points="48.83 62.91 57.59 62.91 57.59 58.7 48.83 58.7 48.83 62.91" style="fill:#f59500"/><path d="M131.12,329.27h7.17v-2.63h-7.17Zm8,1.58h-8.76a.79.79,0,0,1-.79-.79v-4.21a.79.79,0,0,1,.79-.79h8.76a.79.79,0,0,1,.79.79v4.21A.79.79,0,0,1,139.09,330.85Z" transform="translate(-81.5 -267.16)" style="fill:#fff"/><path d="M140.67,299.42a3.12,3.12,0,0,0-3.12-3.12h-9.11v3.51H116.91V296.3H107.8a3.12,3.12,0,0,0-3.12,3.12l-3.45,24.17a3.12,3.12,0,0,0,3.12,3.12H141a3.12,3.12,0,0,0,3.12-3.12l-3.45-24.17Z" transform="translate(-81.5 -267.16)" style="fill:#f59500"/><path d="M102,323.65a2.32,2.32,0,0,0,2.32,2.27H141a2.33,2.33,0,0,0,2.33-2.27l-3.44-24.12a.37.37,0,0,1,0-.11,2.34,2.34,0,0,0-2.33-2.33h-8.32v2.72a.79.79,0,0,1-.79.8H116.91a.79.79,0,0,1-.79-.8v-2.72H107.8a2.34,2.34,0,0,0-2.33,2.33v.11Zm39,3.86H104.35a3.92,3.92,0,0,1-3.91-3.92.45.45,0,0,1,0-.11l3.44-24.12a3.91,3.91,0,0,1,3.91-3.85h9.11a.79.79,0,0,1,.79.79V299h10V296.3a.79.79,0,0,1,.79-.79h9.11a3.91,3.91,0,0,1,3.91,3.85l3.44,24.12a.45.45,0,0,1,0,.11A3.92,3.92,0,0,1,141,327.51Z" transform="translate(-81.5 -267.16)" style="fill:#fff"/><path d="M132.07,301c0,2.77,0,3.31,0,3.4v.13a.65.65,0,0,0,.65.65h13.69a.65.65,0,0,0,.65-.65,30.53,30.53,0,0,0-.35-7.87,11.29,11.29,0,0,0-.33-1.21,12.11,12.11,0,0,0-6.93-7.1c-4.35-1.86-16.78-1.57-16.78-1.57s-12.42-.29-16.76,1.57a11.88,11.88,0,0,0-7.28,8.31,30.81,30.81,0,0,0-.34,7.87.65.65,0,0,0,.65.65h13.69a.64.64,0,0,0,.65-.65.5.5,0,0,0,0-.13s.06-.63,0-3.4c0-3.52-1.46-4.43-1.46-4.43,1.45-.78,10.85-.6,10.85-.6s9.41-.18,10.85.6C133.52,296.57,132.12,297.56,132.07,301Z" transform="translate(-81.5 -267.16)" style="fill:#f59500"/><path d="M132.86,304.39h13.42a29.36,29.36,0,0,0-.34-7.56,10.44,10.44,0,0,0-.31-1.13,11.33,11.33,0,0,0-6.49-6.62c-3.2-1.37-11.26-1.52-14.57-1.52-1.15,0-1.87,0-1.88,0s-.76,0-1.9,0c-3.32,0-11.38.15-14.57,1.52a11.09,11.09,0,0,0-6.81,7.75,30.07,30.07,0,0,0-.34,7.56h13.39v-.07s.06-.67,0-3.31c0-2.95-1.11-3.78-1.12-3.79a.83.83,0,0,1-.33-.7.8.8,0,0,1,.41-.65c.32-.17,1.31-.71,8.84-.71,1.38,0,2.37,0,2.4,0s1,0,2.37,0c7.53,0,8.52.54,8.84.71a.81.81,0,0,1,.42.65.8.8,0,0,1-.34.7h0s-1.08.9-1.12,3.79c0,1.59,0,2.7,0,3.3v.08ZM112.63,306H98.94a1.45,1.45,0,0,1-1.44-1.45,30.64,30.64,0,0,1,.36-8,12.65,12.65,0,0,1,7.73-8.86c3.34-1.43,11-1.65,15.2-1.65,1.14,0,1.86,0,1.9,0s.73,0,1.88,0c4.24,0,11.85.22,15.19,1.65a12.91,12.91,0,0,1,7.37,7.57q.21.63.36,1.29a30.68,30.68,0,0,1,.36,8.12,1.44,1.44,0,0,1-1.44,1.38H132.72a1.45,1.45,0,0,1-1.44-1.45v-.13c0-.66,0-1.79,0-3.41a8.28,8.28,0,0,1,.88-3.95,60.66,60.66,0,0,0-7.1-.29c-1.38,0-2.36,0-2.37,0s-1,0-2.4,0a60.49,60.49,0,0,0-7.08.29,8.29,8.29,0,0,1,.86,3.95c0,2.14,0,3,0,3.33a1.25,1.25,0,0,1,0,.21A1.44,1.44,0,0,1,112.63,306Z" transform="translate(-81.5 -267.16)" style="fill:#fff"/><path d="M98.18,302.71a.8.8,0,0,1,0-1.59l15.1-.18h0a.79.79,0,0,1,0,1.58l-15.1.19Z" transform="translate(-81.5 -267.16)" style="fill:#fff"/><path d="M132.08,302.29a.8.8,0,0,1,0-1.59l15.09-.19h0a.8.8,0,0,1,0,1.59l-15.09.19Z" transform="translate(-81.5 -267.16)" style="fill:#fff"/><path d="M146.57,310a.8.8,0,0,1-.39-1.49,6.22,6.22,0,0,0,3.13-4.69.78.78,0,0,1,.88-.7.8.8,0,0,1,.69.88,7.79,7.79,0,0,1-3.92,5.89.82.82,0,0,1-.39.11Z" transform="translate(-81.5 -267.16)" style="fill:#fff"/><path d="M148.4,313.18a.8.8,0,0,1-.39-1.49,9.85,9.85,0,0,0,5-7.44.8.8,0,0,1,1.58.19,11.47,11.47,0,0,1-5.75,8.63.82.82,0,0,1-.39.11Z" transform="translate(-81.5 -267.16)" style="fill:#fff"/><path d="M148.32,313.19a.77.77,0,0,1-.69-.4.79.79,0,0,1,.3-1.08,9.89,9.89,0,0,0,5-7.44.79.79,0,1,1,1.57.18,11.51,11.51,0,0,1-5.75,8.64.81.81,0,0,1-.39.1Z" transform="translate(-81.5 -267.16)" style="fill:#fff"/><path d="M149.66,316.51a.77.77,0,0,1-.71-.44.78.78,0,0,1,.35-1.06,13.09,13.09,0,0,0,7.28-10.92.79.79,0,1,1,1.58.11A14.66,14.66,0,0,1,150,316.43a.89.89,0,0,1-.35.08Z" transform="translate(-81.5 -267.16)" style="fill:#fff"/><path d="M99.56,310a.76.76,0,0,1-.38-.11A7.83,7.83,0,0,1,95.25,304a.8.8,0,0,1,.7-.88.78.78,0,0,1,.87.7,6.23,6.23,0,0,0,3.13,4.69.79.79,0,0,1,.31,1.08.81.81,0,0,1-.7.41Z" transform="translate(-81.5 -267.16)" style="fill:#fff"/><path d="M97.74,313.18a.77.77,0,0,1-.39-.11,11.48,11.48,0,0,1-5.76-8.63.8.8,0,0,1,1.58-.19,9.87,9.87,0,0,0,5,7.44.8.8,0,0,1-.39,1.49Z" transform="translate(-81.5 -267.16)" style="fill:#fff"/><path d="M97.82,313.19a.76.76,0,0,1-.39-.1,11.5,11.5,0,0,1-5.76-8.64.8.8,0,0,1,1.58-.18,9.87,9.87,0,0,0,5,7.44.79.79,0,0,1-.39,1.48Z" transform="translate(-81.5 -267.16)" style="fill:#fff"/><path d="M96.48,316.51a.94.94,0,0,1-.36-.08A14.65,14.65,0,0,1,88,304.2a.79.79,0,0,1,.73-.85.81.81,0,0,1,.85.74A13.1,13.1,0,0,0,96.83,315a.79.79,0,0,1-.35,1.5Z" transform="translate(-81.5 -267.16)" style="fill:#fff"/><path d="M130.78,314a8.11,8.11,0,1,1-8.11-8.1A8.11,8.11,0,0,1,130.78,314Z" transform="translate(-81.5 -267.16)" style="fill:#f59500"/><path d="M122.67,306.72A7.32,7.32,0,1,0,130,314,7.32,7.32,0,0,0,122.67,306.72Zm0,16.21a8.9,8.9,0,1,1,8.91-8.9A8.9,8.9,0,0,1,122.67,322.93Z" transform="translate(-81.5 -267.16)" style="fill:#fff"/><path d="M128.09,314a5.42,5.42,0,1,1-5.42-5.42A5.41,5.41,0,0,1,128.09,314Z" transform="translate(-81.5 -267.16)" style="fill:#f59500"/><path d="M122.67,309.41A4.62,4.62,0,1,0,127.3,314,4.63,4.63,0,0,0,122.67,309.41Zm0,10.83a6.21,6.21,0,1,1,6.21-6.21A6.21,6.21,0,0,1,122.67,320.24Z" transform="translate(-81.5 -267.16)" style="fill:#fff"/></g></svg>