<?xml version="1.0" encoding="UTF-8"?>
<!DOCTYPE svg PUBLIC "-//W3C//DTD SVG 1.1//EN" "http://www.w3.org/Graphics/SVG/1.1/DTD/svg11.dtd">
<!-- Creator: CorelDRAW 2020 (64-Bit) -->
<svg xmlns="http://www.w3.org/2000/svg" xml:space="preserve" width="15mm" height="15mm" version="1.1" style="shape-rendering:geometricPrecision; text-rendering:geometricPrecision; image-rendering:optimizeQuality; fill-rule:evenodd; clip-rule:evenodd"
viewBox="0 0 1500 1500"
 xmlns:xlink="http://www.w3.org/1999/xlink"
 xmlns:xodm="http://www.corel.com/coreldraw/odm/2003">
 <defs>
  <style type="text/css">
   <![CDATA[
    .str0 {stroke:#FEFEFE;stroke-width:33.87;stroke-miterlimit:22.9256}
    .fil2 {fill:none}
    .fil1 {fill:#FEFEFE;fill-rule:nonzero}
    .fil0 {fill:#F59500;fill-rule:nonzero}
   ]]>
  </style>
 </defs>
 <g id="Слой_x0020_1">
  <metadata id="CorelCorpID_0Corel-Layer"/>
  <path class="fil0" d="M158.19 770.09c0,324.64 263.2,587.85 587.81,587.85 324.64,0 587.81,-263.21 587.81,-587.85 0,-324.6 -263.17,-587.77 -587.81,-587.77 -324.61,0 -587.81,263.17 -587.81,587.77z"/>
  <path class="fil1" d="M1120.99 985.05c0,26.78 -21.68,48.19 -48.77,48.19 -117.8,0 -475.3,0 -648.63,0 -27.07,0 -48.74,-21.41 -48.74,-48.19l0 -406.94c0,-26.77 21.67,-48.19 48.74,-48.19 60.94,0 620.2,0 648.63,0 27.09,0 48.77,21.42 48.77,48.19l0 406.94zm-117.81 89.69c0,4.02 -4.08,8.03 -8.14,8.03l-67.7 0c-4.07,0 -8.12,-4.01 -8.12,-8.03 0,-4.02 4.05,-8.03 8.12,-8.03l67.7 0c4.06,-1.34 8.14,2.67 8.14,8.03zm-423.86 0c0,4.02 -4.06,8.03 -8.12,8.03l-67.71 0c-4.06,0 -8.12,-4.01 -8.12,-8.03 0,-4.02 4.06,-8.03 8.12,-8.03l67.71 0c4.06,-1.34 8.12,2.67 8.12,8.03zm423.86 -594.35c9.47,0 16.25,8.03 16.25,16.06l-33.87 0c0,-9.37 8.13,-16.06 17.62,-16.06zm69.04 16.06l-18.95 0c0,-26.77 -21.66,-49.52 -48.74,-49.52l-472.6 -100.4c-9.48,-1.34 -17.61,4.01 -20.31,13.38 -1.36,9.37 4.06,17.4 13.54,20.08l433.32 92.37c-4.06,8.03 -6.76,16.06 -6.76,25.43l-526.77 0c-44.69,0 -82.6,36.14 -82.6,81.66l0 406.94c0,44.18 36.56,81.66 82.6,81.66l37.91 0c-5.41,25.43 14.9,50.86 41.99,50.86l67.7 0c27.09,0 47.39,-24.09 41.98,-50.86l272.18 0c-5.42,25.43 14.89,50.86 41.98,50.86l67.71 0c27.08,0 47.39,-24.09 41.98,-50.86l37.91 0c44.7,0 82.61,-36.15 82.61,-81.66l0 -408.28c-4.07,-45.52 -40.63,-81.66 -86.68,-81.66z"/>
  <path class="fil1" d="M1061.39 948.91c-4.06,0 -8.12,-4.02 -8.12,-8.03 0,-4.02 4.06,-8.03 8.12,-8.03 4.07,0 8.13,4.01 8.13,8.03 1.35,4.01 -2.71,8.03 -8.13,8.03zm0 -50.87c-23.01,0 -41.96,18.74 -41.96,41.5 0,22.76 18.95,41.5 41.96,41.5 23.03,0 41.98,-18.74 41.98,-41.5 1.37,-22.76 -18.95,-41.5 -41.98,-41.5z"/>
  <path class="fil1" d="M1061.39 848.51c-4.06,0 -8.12,-4.01 -8.12,-8.03 0,-4.02 4.06,-8.03 8.12,-8.03 4.07,0 8.13,4.01 8.13,8.03 0,4.02 -2.71,8.03 -8.13,8.03zm0 -50.87c-23.01,0 -41.96,18.74 -41.96,41.5 0,22.76 18.95,41.5 41.96,41.5 23.03,0 41.98,-18.74 41.98,-41.5 0,-22.76 -18.95,-41.5 -41.98,-41.5z"/>
  <path class="fil1" d="M1087.12 714.65l-51.44 0c-9.48,0 -17.62,8.03 -17.62,17.4 0,9.37 8.14,17.4 17.62,17.4l51.44 0c9.48,0 17.62,-8.03 17.62,-17.4 0,-10.71 -8.14,-17.4 -17.62,-17.4z"/>
  <path class="fil1" d="M1087.12 663.78l-51.44 0c-9.48,0 -17.62,8.03 -17.62,17.4 0,9.37 8.14,17.41 17.62,17.41l51.44 0c9.48,0 17.62,-8.04 17.62,-17.41 0,-9.37 -8.14,-17.4 -17.62,-17.4z"/>
  <path class="fil2 str0" d="M457.72 590.83l499.11 0c12.02,0 21.85,9.83 21.85,21.85l0 348.15c0,12.02 -9.83,21.85 -21.85,21.85l-499.11 0c-12.02,0 -21.85,-9.83 -21.85,-21.85l0 -348.15c0,-12.02 9.83,-21.85 21.85,-21.85z"/>
 </g>
</svg>
