<?xml version="1.0" encoding="UTF-8"?>
<!DOCTYPE svg PUBLIC "-//W3C//DTD SVG 1.1//EN" "http://www.w3.org/Graphics/SVG/1.1/DTD/svg11.dtd">
<!-- Creator: CorelDRAW 2020 (64-Bit) -->
<svg xmlns="http://www.w3.org/2000/svg" xml:space="preserve" width="15mm" height="15mm" version="1.1" style="shape-rendering:geometricPrecision; text-rendering:geometricPrecision; image-rendering:optimizeQuality; fill-rule:evenodd; clip-rule:evenodd"
viewBox="0 0 1500 1500"
 xmlns:xlink="http://www.w3.org/1999/xlink"
 xmlns:xodm="http://www.corel.com/coreldraw/odm/2003">
 <defs>
  <style type="text/css">
   <![CDATA[
    .fil1 {fill:#FEFEFE;fill-rule:nonzero}
    .fil0 {fill:#F59500;fill-rule:nonzero}
   ]]>
  </style>
 </defs>
 <g id="Слой_x0020_1">
  <metadata id="CorelCorpID_0Corel-Layer"/>
  <path class="fil0" d="M174.14 749.67c0,324.64 263.2,587.85 587.81,587.85 324.64,0 587.81,-263.21 587.81,-587.85 0,-324.6 -263.17,-587.77 -587.81,-587.77 -324.61,0 -587.81,263.17 -587.81,587.77z"/>
  <path class="fil1" d="M457.49 503.21l588.9 0 0 363.85 -588.9 0 0 -363.85zm-17.67 400.23l625.71 0c10.3,0 19.13,-8.73 19.13,-18.92l0 -400.23c0,-10.18 -8.83,-18.92 -19.13,-18.92l-625.71 0c-10.3,0 -19.14,8.74 -19.14,18.92l0 400.23c0,10.19 8.84,18.92 19.14,18.92z"/>
  <path class="fil1" d="M1120 1048.98l-736.12 0c-20.61,0 -36.81,-16.01 -36.81,-36.38 0,-20.38 16.2,-36.39 36.81,-36.39l257.64 0 0 18.92c0,10.19 8.83,18.92 19.14,18.92l184.03 0c10.3,0 19.14,-8.73 19.14,-18.92l0 -18.92 257.64 0c20.61,0 36.81,16.01 36.81,36.39 0,20.37 -17.67,36.38 -38.28,36.38zm-736.12 -586.51c0,-17.47 14.72,-32.03 32.39,-32.03l671.33 0c17.67,0 32.4,14.56 32.4,32.03l0 445.34c0,17.46 -14.73,32.02 -32.4,32.02l-242.91 0c-10.31,0 -19.14,8.73 -19.14,18.92l0 18.91 -147.22 0 0 -18.91c0,-10.19 -8.84,-18.92 -19.14,-18.92l-242.92 0c-17.67,0 -32.39,-14.56 -32.39,-32.02l0 -445.34zm762.62 481.72c7.35,-10.18 10.31,-23.28 10.31,-36.38l0 -445.34c0,-37.85 -30.92,-68.41 -69.21,-68.41l-671.33 0c-38.29,0 -69.2,30.56 -69.2,68.41l0 445.34c0,13.1 4.42,26.2 10.3,36.38 -27.97,10.19 -47.09,36.38 -47.09,68.41 0,40.74 32.38,72.76 73.6,72.76l736.12 0c41.22,0 73.61,-32.02 73.61,-72.76 0,-32.03 -19.15,-58.22 -47.11,-68.41z"/>
 </g>
</svg>
