<?xml version="1.0" encoding="UTF-8"?>
<!DOCTYPE svg PUBLIC "-//W3C//DTD SVG 1.1//EN" "http://www.w3.org/Graphics/SVG/1.1/DTD/svg11.dtd">
<!-- Creator: CorelDRAW 2020 (64-Bit) -->
<svg xmlns="http://www.w3.org/2000/svg" xml:space="preserve" width="15mm" height="15mm" version="1.1" style="shape-rendering:geometricPrecision; text-rendering:geometricPrecision; image-rendering:optimizeQuality; fill-rule:evenodd; clip-rule:evenodd"
viewBox="0 0 1500 1500"
 xmlns:xlink="http://www.w3.org/1999/xlink"
 xmlns:xodm="http://www.corel.com/coreldraw/odm/2003">
 <defs>
  <style type="text/css">
   <![CDATA[
    .fil1 {fill:#FEFEFE;fill-rule:nonzero}
    .fil0 {fill:#F59500;fill-rule:nonzero}
   ]]>
  </style>
 </defs>
 <g id="Слой_x0020_1">
  <metadata id="CorelCorpID_0Corel-Layer"/>
  <path class="fil0" d="M160.96 739.29c0,324.64 263.2,587.85 587.81,587.85 324.64,0 587.81,-263.21 587.81,-587.85 0,-324.6 -263.17,-587.77 -587.81,-587.77 -324.61,0 -587.81,263.17 -587.81,587.77z"/>
  <path class="fil1" d="M992.8 1043.11l-489.18 0c-34.72,0 -63.67,-28.61 -63.67,-62.95l0 -80.11 615.07 0 0 80.11c1.44,34.34 -27.49,62.95 -62.22,62.95zm-489.18 -608.01l489.18 0c34.73,0 63.66,28.61 63.66,62.94l0 366.24 -615.05 0 0 -366.24c0,-35.76 27.49,-62.94 62.21,-62.94zm489.18 -35.77l-489.18 0c-54.97,0 -99.84,44.35 -99.84,98.71l0 482.12c0,54.37 44.87,98.72 99.84,98.72l489.18 0c54.99,0 99.84,-44.35 99.84,-98.72l0 -482.12c0,-54.36 -44.85,-98.71 -99.84,-98.71z"/>
  <path class="fil1" d="M586.13 595.33c10.38,0 18.8,8.32 18.8,18.6 0,10.27 -8.42,18.59 -18.8,18.59 -10.4,0 -18.81,-8.32 -18.81,-18.59 0,-10.28 8.41,-18.6 18.81,-18.6z"/>
  <path class="fil1" d="M820.58 488.03c10.37,0 18.8,8.32 18.8,18.6 0,10.27 -8.43,18.6 -18.8,18.6 -10.4,0 -18.83,-8.33 -18.83,-18.6 0,-10.28 8.43,-18.6 18.83,-18.6z"/>
  <path class="fil1" d="M549.95 585.31c0,-4.29 4.33,-8.58 8.67,-8.58l254.72 0c4.35,0 8.67,4.29 8.67,8.58 0,57.23 0,105.87 0,163.09 0,4.29 -4.32,8.59 -8.67,8.59l-256.15 0c-4.35,0 -8.7,-4.3 -8.7,-8.59l0 -163.09 1.46 0zm397.97 22.89l0 118.74 -91.17 -27.18 0 -65.81 91.17 -25.75zm-390.73 184.55l254.69 0c24.61,0 44.87,-20.03 44.87,-44.35l0 -11.44c108.54,31.47 104.2,31.47 108.54,31.47 10.12,0 18.81,-8.58 18.81,-18.6l0 -165.95c0,-11.44 -11.57,-20.03 -23.15,-17.17l-104.2 30.04 0 -11.44c0,-24.32 -20.26,-44.35 -44.87,-44.35l-254.69 0c-24.61,0 -44.87,20.03 -44.87,44.35l0 163.09c1.43,24.32 20.26,44.35 44.87,44.35z"/>
  <path class="fil1" d="M622.29 666.86c10.13,0 18.83,8.58 18.83,18.6 0,10.01 -8.7,18.59 -18.83,18.59 -10.12,0 -18.79,-8.58 -18.79,-18.59 0,-10.02 8.67,-18.6 18.79,-18.6zm0 71.53c30.41,0 55.01,-24.32 55.01,-54.36 0,-30.05 -24.6,-54.37 -55.01,-54.37 -30.38,0 -54.97,25.75 -54.97,55.8 0,30.04 24.59,52.93 54.97,52.93z"/>
  <path class="fil1" d="M748.2 666.86c10.13,0 18.83,8.58 18.83,18.6 0,10.01 -8.7,18.59 -18.83,18.59 -10.12,0 -18.79,-8.58 -18.79,-18.59 0,-10.02 8.67,-18.6 18.79,-18.6zm0 71.53c30.41,0 55.01,-24.32 55.01,-54.36 0,-30.05 -24.6,-54.37 -55.01,-54.37 -30.38,0 -54.99,24.32 -54.99,54.37 0,30.04 24.61,54.36 54.99,54.36z"/>
  <path class="fil1" d="M576 988.75c-4.35,0 -8.68,-4.3 -8.68,-8.59 0,-4.29 4.33,-8.58 8.68,-8.58 4.33,0 8.67,4.29 8.67,8.58 1.46,4.29 -2.89,8.59 -8.67,8.59zm0 -52.93c-24.61,0 -44.88,20.02 -44.88,44.34 0,24.32 20.27,44.35 44.88,44.35 24.61,0 44.87,-20.03 44.87,-44.35 1.42,-24.32 -20.26,-44.34 -44.87,-44.34z"/>
  <path class="fil1" d="M549.95 523.8l217.08 0c10.13,0 18.81,-8.59 18.81,-18.6 0,-10.02 -8.68,-18.6 -18.81,-18.6l-217.08 0c-10.13,0 -18.83,8.58 -18.83,18.6 0,10.01 8.7,18.6 18.83,18.6z"/>
 </g>
</svg>
