<?xml version="1.0" encoding="UTF-8"?>
<!DOCTYPE svg PUBLIC "-//W3C//DTD SVG 1.1//EN" "http://www.w3.org/Graphics/SVG/1.1/DTD/svg11.dtd">
<!-- Creator: CorelDRAW 2020 (64-Bit) -->
<svg xmlns="http://www.w3.org/2000/svg" xml:space="preserve" width="15mm" height="15mm" version="1.1" style="shape-rendering:geometricPrecision; text-rendering:geometricPrecision; image-rendering:optimizeQuality; fill-rule:evenodd; clip-rule:evenodd"
viewBox="0 0 1500 1500"
 xmlns:xlink="http://www.w3.org/1999/xlink"
 xmlns:xodm="http://www.corel.com/coreldraw/odm/2003">
 <defs>
  <style type="text/css">
   <![CDATA[
    .fil1 {fill:#FEFEFE}
    .fil0 {fill:#F59500;fill-rule:nonzero}
   ]]>
  </style>
 </defs>
 <g id="Слой_x0020_1">
  <metadata id="CorelCorpID_0Corel-Layer"/>
  <path class="fil0" d="M155.53 771.18c0,324.64 263.2,587.85 587.81,587.85 324.64,0 587.81,-263.21 587.81,-587.85 0,-324.6 -263.17,-587.77 -587.81,-587.77 -324.61,0 -587.81,263.17 -587.81,587.77z"/>
  <path class="fil1" d="M1138.52 634.13c-25.8,-26.28 -59.55,-42.15 -95.89,-45.28 -5.24,-13.53 -12.16,-26.33 -20.7,-38.18 -10.38,-14.43 -22.87,-27.11 -37.14,-37.71 -29.7,-22.03 -64.98,-33.66 -102.05,-33.66 -37.06,0 -72.33,11.63 -102.03,33.66 -14.27,10.6 -26.78,23.28 -37.16,37.71 -0.59,0.82 -1.17,1.64 -1.74,2.48 7.55,4.23 14.88,8.96 21.91,14.2 0.83,0.58 1.61,1.19 2.41,1.79 26.06,-37.39 69.11,-60.64 116.61,-60.64 62.13,0 116.57,39.73 135.48,98.84l3.16 9.95 10.44 0.22c66.88,1.35 121.29,56.89 121.29,123.8 0,66.63 -52.1,120.97 -118.63,123.73l-11.32 0.47 -37.88 -0.04c-1.92,9.97 -4.66,19.73 -8.2,29.19l72.63 0.1 0 -1.76c34.15,-4.54 65.68,-20.45 89.87,-45.61 27.56,-28.64 42.73,-66.31 42.73,-106.08 0,-40.33 -15.56,-78.39 -43.79,-107.18z"/>
  <path class="fil1" d="M472.24 969.06l0.13 0 317.6 0.41 12.65 -0.51c74.19,-3.09 132.31,-63.71 132.31,-138.03 0,-74.64 -60.68,-136.59 -135.3,-138.12l-11.64 -0.23 -3.53 -11.09c-21.1,-65.96 -81.82,-110.27 -151.12,-110.27 -69.28,0 -130.02,44.31 -151.11,110.27l-3.54 11.09 -11.64 0.23c-74.6,1.53 -135.3,63.48 -135.3,138.12 0,76.18 61.98,138.15 138.16,138.15 0.53,0 1.05,0 1.58,-0.02l0.75 0zm347.35 33.03l-347.11 -0.46 -0.43 0.01c-0.72,0.01 -1.42,0.02 -2.14,0.02 -45.61,0 -88.48,-17.76 -120.72,-50 -32.25,-32.25 -50.01,-75.12 -50.01,-120.73 0,-44.99 17.35,-87.45 48.85,-119.55 28.78,-29.34 66.41,-47.03 106.96,-50.53 5.83,-15.09 13.58,-29.36 23.08,-42.58 11.59,-16.09 25.52,-30.24 41.46,-42.07 33.11,-24.57 72.46,-37.55 113.81,-37.55 41.35,0 80.7,12.98 113.82,37.55 15.93,11.83 29.87,25.98 41.44,42.07 9.52,13.22 17.26,27.49 23.09,42.58 40.54,3.5 78.18,21.19 106.95,50.53 31.51,32.1 48.85,74.56 48.85,119.55 0,44.35 -16.9,86.38 -47.66,118.33 -26.97,28.07 -62.14,45.81 -100.24,50.88l0 1.95z"/>
 </g>
</svg>
