<?xml version="1.0" encoding="UTF-8"?>
<!DOCTYPE svg PUBLIC "-//W3C//DTD SVG 1.1//EN" "http://www.w3.org/Graphics/SVG/1.1/DTD/svg11.dtd">
<!-- Creator: CorelDRAW 2020 (64-Bit) -->
<svg xmlns="http://www.w3.org/2000/svg" xml:space="preserve" width="15mm" height="15mm" version="1.1" style="shape-rendering:geometricPrecision; text-rendering:geometricPrecision; image-rendering:optimizeQuality; fill-rule:evenodd; clip-rule:evenodd"
viewBox="0 0 1500 1500"
 xmlns:xlink="http://www.w3.org/1999/xlink"
 xmlns:xodm="http://www.corel.com/coreldraw/odm/2003">
 <defs>
  <style type="text/css">
   <![CDATA[
    .fil1 {fill:#FEFEFE;fill-rule:nonzero}
    .fil0 {fill:#F59500;fill-rule:nonzero}
   ]]>
  </style>
 </defs>
 <g id="Слой_x0020_1">
  <metadata id="CorelCorpID_0Corel-Layer"/>
  <path class="fil0" d="M162.37 739.12c0,324.64 263.2,587.85 587.81,587.85 324.64,0 587.81,-263.21 587.81,-587.85 0,-324.6 -263.17,-587.77 -587.81,-587.77 -324.61,0 -587.81,263.17 -587.81,587.77z"/>
  <path class="fil1" d="M972.07 1060.85l0 -23.84c0,-6.82 -4.55,-12.48 -11.36,-13.62l-51.08 -11.36c-3.4,-13.61 -9.07,-24.97 -15.88,-37.45l28.38 -44.27c3.4,-5.67 2.26,-12.49 -2.28,-18.16l-27.24 -27.25c-4.54,-4.53 -12.49,-5.67 -18.16,-2.26l-44.27 28.38c-11.35,-6.82 -23.84,-11.36 -36.31,-14.76l-11.36 -51.08c-1.13,-6.82 -6.82,-11.35 -13.63,-11.35l-39.72 0c-6.81,0 -12.48,4.53 -13.62,11.35l-11.35 51.08c-12.48,3.4 -24.97,9.09 -36.33,14.76l-44.26 -28.38c-6.81,-3.41 -13.62,-2.27 -18.16,2.26l-28.38 28.39c-4.53,4.53 -5.67,12.48 -2.27,18.16l28.38 44.27c-6.81,11.34 -11.35,23.84 -14.75,36.31l-51.08 11.36c-6.81,1.14 -11.36,6.8 -11.36,13.62l0 23.84 -85.12 0 0 -510.78 624.28 0 0 43.13 -510.78 0c-7.95,0 -14.75,6.82 -14.75,14.76 0,7.94 6.8,14.74 14.75,14.74l510.78 0 0 440.41 -93.07 0 0 -2.26zm-162.32 0l-121.45 0c3.41,-30.66 29.51,-55.62 61.29,-55.62 30.65,0 56.75,24.96 60.16,55.62zm-178.21 -93.08l-26.1 -43.13 12.48 -12.49 42 26.11c4.54,3.4 10.22,3.4 14.76,0 13.62,-9.08 28.37,-14.76 44.26,-18.16 5.68,-1.14 9.09,-5.68 10.22,-10.22l11.35 -48.81 17.02 0 11.35 48.81c1.14,5.68 5.69,9.08 10.23,10.22 15.89,3.4 30.64,9.08 44.26,18.16 4.54,3.4 10.21,3.4 14.76,0l41.99 -26.11 12.49 12.49 -26.11 42c-3.4,4.54 -3.4,10.21 0,14.76 9.09,13.61 14.76,28.37 18.16,44.25 1.14,5.68 5.68,9.09 10.22,10.21l48.81 11.36 0 12.49 -105.56 0c-3.41,-46.53 -42,-83.99 -89.67,-83.99 -47.68,0 -86.27,37.46 -89.67,83.99l-105.56 0 0 -12.49 48.8 -11.36c5.68,-1.12 9.08,-5.67 10.22,-10.21 3.4,-15.88 10.22,-30.64 18.16,-44.25 4.54,-3.41 4.54,-9.09 1.13,-13.63zm-20.43 -531.21l0 85.13 -170.25 0 0 -85.13 170.25 0zm454.03 28.38l-283.76 0c-7.95,0 -14.76,6.8 -14.76,14.75 0,7.95 6.81,14.76 14.76,14.76l283.76 0 0 27.24 -425.65 0 0 -85.13 425.65 0 0 28.38zm14.76 -56.76l-652.67 0c-7.94,0 -14.75,6.81 -14.75,14.76l0 652.66c0,7.95 6.81,14.75 14.75,14.75l106.7 0c4.54,2.27 9.08,2.27 12.48,0l404.09 0c4.54,2.27 9.07,2.27 12.48,0l115.78 0c7.95,0 14.76,-6.8 14.76,-14.75l0 -652.66c0,-7.95 -6.81,-14.76 -13.62,-14.76z"/>
  <path class="fil1" d="M746.19 691.95l-241.77 0c-3.41,0 -6.81,-3.41 -6.81,-6.81 0,-3.41 3.4,-6.81 6.81,-6.81l241.77 0c3.4,0 6.81,3.4 6.81,6.81 0,3.4 -3.41,6.81 -6.81,6.81zm0 -42l-241.77 0c-19.3,0 -35.19,15.89 -35.19,35.19 0,19.3 15.89,35.18 35.19,35.18l241.77 0c19.29,0 35.19,-15.88 35.19,-35.18 0,-19.3 -15.9,-35.19 -35.19,-35.19z"/>
  <path class="fil1" d="M746.19 777.07l-241.77 0c-3.41,0 -6.81,-3.4 -6.81,-6.8 0,-3.41 3.4,-6.82 6.81,-6.82l241.77 0c3.4,0 6.81,3.41 6.81,6.82 0,3.4 -3.41,6.8 -6.81,6.8zm0 -41.99l-241.77 0c-19.3,0 -35.19,15.9 -35.19,35.19 0,19.29 15.89,35.19 35.19,35.19l241.77 0c19.29,0 35.19,-15.9 35.19,-35.19 0,-19.29 -15.9,-35.19 -35.19,-35.19z"/>
  <path class="fil1" d="M483.98 621.58l28.38 0c7.95,0 14.76,-6.81 14.76,-14.76 0,-7.95 -6.81,-14.76 -14.76,-14.76l-28.38 0c-7.94,0 -14.75,6.81 -14.75,14.76 0,7.95 6.81,14.76 14.75,14.76z"/>
  <polygon class="fil1" points="469.23,493.31 497.61,493.31 497.61,464.94 469.23,464.94 "/>
  <polygon class="fil1" points="512.36,493.31 540.74,493.31 540.74,464.94 512.36,464.94 "/>
  <polygon class="fil1" points="554.36,493.31 582.73,493.31 582.73,464.94 554.36,464.94 "/>
 </g>
</svg>
