<?xml version="1.0" encoding="UTF-8"?>
<!DOCTYPE svg PUBLIC "-//W3C//DTD SVG 1.1//EN" "http://www.w3.org/Graphics/SVG/1.1/DTD/svg11.dtd">
<!-- Creator: CorelDRAW 2020 (64-Bit) -->
<svg xmlns="http://www.w3.org/2000/svg" xml:space="preserve" width="15mm" height="15mm" version="1.1" style="shape-rendering:geometricPrecision; text-rendering:geometricPrecision; image-rendering:optimizeQuality; fill-rule:evenodd; clip-rule:evenodd"
viewBox="0 0 1500 1500"
 xmlns:xlink="http://www.w3.org/1999/xlink"
 xmlns:xodm="http://www.corel.com/coreldraw/odm/2003">
 <defs>
  <style type="text/css">
   <![CDATA[
    .fil1 {fill:#FEFEFE;fill-rule:nonzero}
    .fil0 {fill:#F59500;fill-rule:nonzero}
   ]]>
  </style>
 </defs>
 <g id="Слой_x0020_1">
  <metadata id="CorelCorpID_0Corel-Layer"/>
  <path class="fil0" d="M167.48 754.52c0,324.64 263.2,587.85 587.81,587.85 324.64,0 587.81,-263.21 587.81,-587.85 0,-324.6 -263.17,-587.77 -587.81,-587.77 -324.61,0 -587.81,263.17 -587.81,587.77z"/>
  <path class="fil1" d="M1053.93 532.75c-35.27,0 -68.58,-3.63 -98.99,-10.8 -9.94,-2.36 -20.21,2.33 -24.96,11.37l-184.69 351.24 -111.9 -111.9c-8.74,-8.73 -22.93,-8.73 -31.67,0 -8.75,8.76 -8.75,22.94 0,31.69l133.4 133.4c5.03,5.03 12.16,7.37 19.2,6.31 7.04,-1.07 13.15,-5.42 16.46,-11.72l190.95 -363.15c22.2,4.25 45.56,6.89 69.8,7.9l0 112.95c0,82.64 -14.83,155.12 -44.07,215.45 -23.15,47.76 -55.43,88.2 -95.95,120.18 -61.2,48.32 -123.5,62.96 -138.19,65.87 -14.64,-2.85 -75.46,-17.01 -136.48,-64.58 -40.92,-31.9 -73.55,-72.34 -96.97,-120.21 -29.66,-60.58 -44.69,-133.5 -44.69,-216.71l0 -112.95c48.27,-2 92.83,-10.5 132.73,-25.36 37.29,-13.88 70.58,-33.29 98.96,-57.7 20.77,-17.87 35.89,-35.84 46.47,-50.77 18.26,25.74 50.05,60.6 101.24,88.41 10.87,5.9 24.47,1.88 30.38,-9 5.9,-10.87 1.88,-24.47 -8.99,-30.37 -76.24,-41.42 -101.62,-101.21 -101.83,-101.7 -3.34,-8.57 -11.53,-14.13 -20.72,-14.16 -9.18,-0.02 -17.43,5.63 -20.85,14.16 -0.14,0.34 -14.77,34.94 -54.91,69.45 -24.35,20.95 -53.08,37.66 -85.38,49.7 -40.99,15.25 -87.92,23 -139.5,23 -12.37,0 -22.4,10.02 -22.4,22.4l0 134.89c0,90.1 16.57,169.64 49.24,236.41 26.44,54.02 63.34,99.73 109.68,135.84 78.89,61.5 157.48,73.68 160.78,74.17 1.09,0.16 2.18,0.23 3.27,0.23 1.1,0 2.19,-0.07 3.27,-0.23 3.31,-0.49 81.9,-12.67 160.79,-74.17 46.34,-36.11 83.24,-81.82 109.67,-135.84 32.68,-66.77 49.25,-146.31 49.25,-236.41l0 -134.89c0,-12.38 -10.03,-22.4 -22.4,-22.4z"/>
 </g>
</svg>
