<?xml version="1.0" encoding="UTF-8"?>
<!DOCTYPE svg PUBLIC "-//W3C//DTD SVG 1.1//EN" "http://www.w3.org/Graphics/SVG/1.1/DTD/svg11.dtd">
<!-- Creator: CorelDRAW 2020 (64-Bit) -->
<svg xmlns="http://www.w3.org/2000/svg" xml:space="preserve" width="15mm" height="15mm" version="1.1" style="shape-rendering:geometricPrecision; text-rendering:geometricPrecision; image-rendering:optimizeQuality; fill-rule:evenodd; clip-rule:evenodd"
viewBox="0 0 1500 1500"
 xmlns:xlink="http://www.w3.org/1999/xlink"
 xmlns:xodm="http://www.corel.com/coreldraw/odm/2003">
 <defs>
  <style type="text/css">
   <![CDATA[
    .fil1 {fill:#FEFEFE;fill-rule:nonzero}
    .fil0 {fill:#F59500;fill-rule:nonzero}
   ]]>
  </style>
 </defs>
 <g id="Слой_x0020_1">
  <metadata id="CorelCorpID_0Corel-Layer"/>
  <path class="fil0" d="M165.1 762.16c0,324.64 263.2,587.85 587.81,587.85 324.64,0 587.81,-263.21 587.81,-587.85 0,-324.6 -263.17,-587.77 -587.81,-587.77 -324.61,0 -587.81,263.17 -587.81,587.77z"/>
  <g id="_2171113255856">
   <path class="fil1" d="M990.99 599.95l-567.88 152.17c2.3,2.87 5.11,5.27 8.25,7.08l0.03 0.02 0.01 -0.02c6.5,3.75 14.43,5.04 22.22,2.95l541.92 -145.21 -4.55 -16.99 0 0zm-587.62 133.19l592.88 -158.86c6.25,-1.67 12.68,2.04 14.35,8.3l10.62 39.63c1.67,6.25 -2.05,12.67 -8.3,14.34l-553.25 148.25c-14.01,3.75 -28.28,1.43 -40,-5.34l0.01 -0.02c-11.72,-6.77 -20.86,-17.97 -24.61,-31.95 -1.67,-6.25 2.05,-12.68 8.3,-14.35z"/>
   <path class="fil1" d="M469.47 757.9l538.99 -144.42c6.25,-1.67 12.67,2.05 14.34,8.3l19.56 72.98c5.61,20.95 2.14,42.3 -7.98,59.82l-0.02 0.03 0.02 0.02c-10.11,17.51 -26.88,31.19 -47.85,36.81l-441.59 118.33c-12.03,3.22 -24.3,1.23 -34.37,-4.59 -0.25,-0.14 -0.49,-0.29 -0.72,-0.45 -9.72,-5.86 -17.28,-15.31 -20.42,-27.03l-28.25 -105.45c-1.68,-6.25 2.04,-12.68 8.29,-14.35l0 0zm533.73 -118.74l-516.35 138.35 25.22 94.14c1.51,5.63 5.09,10.16 9.69,12.98 0.18,0.09 0.36,0.19 0.54,0.29 4.85,2.8 10.77,3.76 16.59,2.2l441.59 -118.32c14.74,-3.95 26.52,-13.58 33.64,-25.91l0.02 0.01c7.1,-12.31 9.53,-27.33 5.57,-42.08l-16.51 -61.66z"/>
   <path class="fil1" d="M473.43 787.41l3.68 -0.99c6.26,-1.67 12.68,2.05 14.35,8.3l21.67 80.88c1.67,6.25 -2.04,12.67 -8.29,14.34l-3.69 0.99c-14.22,3.81 -28.73,1.46 -40.63,-5.42 -11.89,-6.86 -21.17,-18.24 -24.99,-32.48 -3.81,-14.23 -1.45,-28.73 5.42,-40.63 6.86,-11.89 18.24,-21.17 32.48,-24.99l0 0zm13.75 81.9l-15.05 -56.19c-4.59,2.68 -8.32,6.52 -10.92,11.01 -3.86,6.68 -5.18,14.84 -3.03,22.85 2.14,8 7.37,14.4 14.07,18.27 4.48,2.59 9.62,4.03 14.93,4.06z"/>
   <path class="fil1" d="M1103.13 816.74l0 0c11.7,0 22.33,4.78 30.03,12.47 7.7,7.7 12.47,18.33 12.47,30.03l0 178.89c0,11.7 -4.77,22.33 -12.47,30.03 -7.7,7.7 -18.33,12.48 -30.03,12.48l0 0c-11.7,0 -22.33,-4.78 -30.03,-12.48 -7.7,-7.7 -12.48,-18.33 -12.48,-30.03l0 -178.89c0,-11.7 4.78,-22.33 12.48,-30.03 7.7,-7.69 18.33,-12.47 30.03,-12.47l0 0zm0 23.47l0 0c-5.22,0 -9.98,2.14 -13.44,5.6 -3.45,3.45 -5.6,8.21 -5.6,13.43l0 178.89c0,5.22 2.15,9.98 5.6,13.44 3.46,3.45 8.22,5.6 13.44,5.6l0 0c5.22,0 9.98,-2.15 13.43,-5.6 3.46,-3.46 5.61,-8.22 5.61,-13.44l0 -178.89c0,-5.22 -2.15,-9.98 -5.61,-13.43 -3.45,-3.46 -8.21,-5.6 -13.43,-5.6z"/>
   <path class="fil1" d="M1068.62 932.5c6.26,-1.67 12.68,2.05 14.35,8.3 1.67,6.25 -2.04,12.68 -8.29,14.35l-191.33 51.26c-6.25,1.67 -12.68,-2.04 -14.35,-8.29l-46.83 -174.78c-1.67,-6.25 2.05,-12.68 8.3,-14.35 6.25,-1.67 12.68,2.05 14.35,8.3l43.79 163.45 180.01 -48.24z"/>
  </g>
  <path class="fil1" d="M614.1 484.29c-20.91,0 -37.92,17.01 -37.92,37.92 0,20.91 17.01,37.92 37.92,37.92 20.91,0 37.91,-17.01 37.91,-37.92 0,-20.91 -17,-37.92 -37.91,-37.92zm0 101.98c-35.32,0 -64.05,-28.74 -64.05,-64.06 0,-35.32 28.73,-64.06 64.05,-64.06 35.32,0 64.06,28.74 64.06,64.06 0,35.32 -28.74,64.06 -64.06,64.06zm-137.99 -64.74c7.75,17.35 18.38,32.65 31.66,45.56 14.64,14.25 31.7,25.13 50.7,32.36 18.33,6.99 37.66,10.28 57.47,9.81 19.99,-0.48 39.36,-4.77 57.57,-12.75 18.85,-8.26 35.57,-20.11 49.67,-35.21 15.59,-16.68 24.89,-32.75 28.92,-40.49 -7.76,-17.36 -18.39,-32.67 -31.66,-45.58l0 0c-14.66,-14.25 -31.71,-25.13 -50.71,-32.37 -18.33,-6.98 -37.67,-10.28 -57.48,-9.8 -19.97,0.48 -39.34,4.77 -57.57,12.75 -18.85,8.26 -35.56,20.11 -49.67,35.21 -15.45,16.55 -24.84,32.72 -28.9,40.51zm136.09 113.92c-21.69,0 -42.87,-3.89 -63.03,-11.56 -22.36,-8.51 -42.41,-21.31 -59.63,-38.06 -17.22,-16.75 -30.65,-36.86 -39.9,-59.77 -1.3,-3.24 -1.27,-6.85 0.11,-10.05 0.45,-1.07 11.48,-26.4 36.16,-52.84 16.55,-17.71 36.16,-31.61 58.29,-41.3 21.34,-9.36 44.03,-14.38 67.42,-14.94 23.21,-0.56 45.89,3.31 67.42,11.5 22.34,8.51 42.41,21.31 59.62,38.05 0,0 0,0 0,0 17.23,16.76 30.65,36.87 39.91,59.79 1.3,3.23 1.26,6.84 -0.12,10.04 -0.45,1.07 -11.48,26.4 -36.15,52.84 -16.56,17.71 -36.17,31.61 -58.29,41.3 -21.35,9.35 -44.04,14.38 -67.44,14.94 -1.46,0.04 -2.91,0.06 -4.37,0.06z"/>
 </g>
</svg>
