<?xml version="1.0" encoding="UTF-8"?>
<!DOCTYPE svg PUBLIC "-//W3C//DTD SVG 1.1//EN" "http://www.w3.org/Graphics/SVG/1.1/DTD/svg11.dtd">
<!-- Creator: CorelDRAW 2020 (64-Bit) -->
<svg xmlns="http://www.w3.org/2000/svg" xml:space="preserve" width="15mm" height="15mm" version="1.1" style="shape-rendering:geometricPrecision; text-rendering:geometricPrecision; image-rendering:optimizeQuality; fill-rule:evenodd; clip-rule:evenodd"
viewBox="0 0 1500 1500"
 xmlns:xlink="http://www.w3.org/1999/xlink"
 xmlns:xodm="http://www.corel.com/coreldraw/odm/2003">
 <defs>
  <style type="text/css">
   <![CDATA[
    .fil1 {fill:#FEFEFE;fill-rule:nonzero}
    .fil0 {fill:#F59500;fill-rule:nonzero}
   ]]>
  </style>
 </defs>
 <g id="Слой_x0020_1">
  <metadata id="CorelCorpID_0Corel-Layer"/>
  <path class="fil0" d="M154.79 775.86c0,324.64 263.2,587.85 587.81,587.85 324.64,0 587.81,-263.21 587.81,-587.85 0,-324.6 -263.17,-587.77 -587.81,-587.77 -324.61,0 -587.81,263.17 -587.81,587.77z"/>
  <path class="fil1" d="M986.24 504.69c0,-17.75 -13.96,-31.7 -31.71,-31.7 -17.74,0 -31.7,13.95 -31.7,31.7 0,17.75 13.96,31.69 31.7,31.69 17.75,0 31.71,-13.94 31.71,-31.69z"/>
  <path class="fil1" d="M874.65 472.99c-17.74,0 -31.69,13.95 -31.69,31.7 0,17.75 13.95,31.69 31.69,31.69 17.76,0 31.71,-13.94 31.71,-31.69 0,-17.75 -13.95,-31.7 -31.71,-31.7z"/>
  <path class="fil1" d="M986.24 663.17c0,-17.74 -13.96,-31.69 -31.71,-31.69 -17.74,0 -31.7,13.95 -31.7,31.69 0,17.76 13.96,31.7 31.7,31.7 17.75,0 31.71,-13.94 31.71,-31.7z"/>
  <path class="fil1" d="M874.65 631.48c-17.74,0 -31.69,13.95 -31.69,31.69 0,17.76 13.95,31.7 31.69,31.7 17.76,0 31.71,-13.94 31.71,-31.7 0,-17.74 -13.95,-31.69 -31.71,-31.69z"/>
  <path class="fil1" d="M954.53 853.37c17.75,0 31.71,-13.95 31.71,-31.71 0,-17.74 -13.96,-31.69 -31.71,-31.69 -17.74,0 -31.7,13.95 -31.7,31.69 0,17.76 13.96,31.71 31.7,31.71z"/>
  <path class="fil1" d="M874.65 853.37c17.76,0 31.71,-13.95 31.71,-31.71 0,-17.74 -13.95,-31.69 -31.71,-31.69 -17.74,0 -31.69,13.95 -31.69,31.69 0,17.76 13.95,31.71 31.69,31.71z"/>
  <path class="fil1" d="M747.87 1091.72c-17.75,0 -31.7,-13.93 -31.7,-31.69 0,-17.75 13.95,-31.7 31.7,-31.7 17.74,0 31.7,13.95 31.7,31.7 0,17.76 -13.96,31.69 -31.7,31.69zm-268.8 -270.06c0,-35.5 27.9,-63.39 63.39,-63.39l412.07 0c35.5,0 63.4,27.89 63.4,63.39 0,35.51 -27.9,63.4 -63.4,63.4l-412.07 0c-35.49,0 -63.39,-27.89 -63.39,-63.4zm0 -158.49c0,-35.49 27.9,-63.39 63.39,-63.39l412.07 0c35.5,0 63.4,27.9 63.4,63.39 0,35.52 -27.9,63.41 -63.4,63.41l-412.07 0c-35.49,0 -63.39,-27.89 -63.39,-63.41zm0 -158.48c0,-35.5 27.9,-63.39 63.39,-63.39l412.07 0c35.5,0 63.4,27.89 63.4,63.39 0,35.5 -27.9,63.4 -63.4,63.4l-412.07 0c-35.49,0 -63.39,-27.9 -63.39,-63.4zm633.95 538.85l-304.3 0c-6.34,-22.81 -22.81,-39.29 -45.64,-45.65l0 -81.13 190.18 0c51.99,0 95.1,-43.11 95.1,-95.1 0,-32.96 -16.49,-62.12 -43.11,-79.88 25.35,-16.47 43.11,-45.64 43.11,-79.87 0,-34.23 -16.49,-62.13 -43.11,-79.88 25.35,-16.48 43.11,-45.65 43.11,-79.88 0,-51.98 -43.11,-95.08 -95.1,-95.08l-410.8 0c-51.98,0 -95.09,43.1 -95.09,95.08 0,32.98 16.48,62.14 43.11,79.88 -25.35,16.49 -43.11,45.65 -43.11,79.88 0,34.23 16.48,62.13 43.11,79.87 -25.35,16.49 -43.11,45.65 -43.11,79.88 0,51.99 43.11,95.1 95.09,95.1l190.19 0 0 81.13c-22.82,6.36 -39.3,22.84 -45.64,45.65l-303.03 0c-8.87,0 -16.48,7.61 -16.48,16.49 0,8.88 7.61,16.47 16.48,16.47l303.03 0c7.6,27.91 31.69,48.2 60.86,48.2 29.16,0 54.51,-20.29 60.85,-48.2l303.03 0c8.88,0 16.49,-7.59 16.49,-16.47 0,-8.88 -7.61,-16.49 -15.22,-16.49z"/>
  <polygon class="fil1" points="510.77,521.17 756.75,521.17 756.75,489.48 510.77,489.48 "/>
  <polygon class="fil1" points="510.77,679.66 756.75,679.66 756.75,647.97 510.77,647.97 "/>
  <polygon class="fil1" points="510.77,838.15 756.75,838.15 756.75,806.44 510.77,806.44 "/>
 </g>
</svg>
