<?xml version="1.0" encoding="UTF-8"?>
<!DOCTYPE svg PUBLIC "-//W3C//DTD SVG 1.1//EN" "http://www.w3.org/Graphics/SVG/1.1/DTD/svg11.dtd">
<!-- Creator: CorelDRAW 2020 (64-Bit) -->
<svg xmlns="http://www.w3.org/2000/svg" xml:space="preserve" width="15mm" height="15mm" version="1.1" style="shape-rendering:geometricPrecision; text-rendering:geometricPrecision; image-rendering:optimizeQuality; fill-rule:evenodd; clip-rule:evenodd"
viewBox="0 0 1500 1500"
 xmlns:xlink="http://www.w3.org/1999/xlink"
 xmlns:xodm="http://www.corel.com/coreldraw/odm/2003">
 <defs>
  <style type="text/css">
   <![CDATA[
    .fil1 {fill:#FEFEFE;fill-rule:nonzero}
    .fil2 {fill:#3A91CF;fill-rule:nonzero}
    .fil0 {fill:#F59500;fill-rule:nonzero}
   ]]>
  </style>
 </defs>
 <g id="Слой_x0020_1">
  <metadata id="CorelCorpID_0Corel-Layer"/>
  <path class="fil0" d="M166.3 780.63c0,324.64 263.2,587.85 587.81,587.85 324.64,0 587.81,-263.21 587.81,-587.85 0,-324.6 -263.17,-587.77 -587.81,-587.77 -324.61,0 -587.81,263.17 -587.81,587.77z"/>
  <path class="fil0" d="M897.86 1002.86l-50.75 50.26 -40.07 -41c1.33,-1.33 2.67,-1.33 4,-2.65 1.34,-1.32 2.67,-1.32 4.01,-2.64l0 0c1.34,0 1.34,-1.33 2.67,-1.33l1.34 -1.32c1.33,0 1.33,-1.32 2.67,-1.32l0 0c1.33,-1.32 2.67,-1.32 2.67,-2.64l0 0c1.34,-1.33 2.67,-1.33 2.67,-2.65 1.34,-1.32 1.34,-1.32 2.67,-2.64 1.35,-1.33 2.68,-2.65 4.01,-3.97 8.02,-7.94 16.03,-17.2 22.7,-27.78l41.41 39.68z"/>
  <polygon class="fil0" points="1000.71,1091.47 936.59,1154.95 840.43,1059.73 847.11,1053.12 897.86,1002.86 899.2,1001.54 904.54,996.25 "/>
  <path class="fil0" d="M567.95 930.12l-100.17 0c-58.77,-17.19 -100.17,-78.03 -100.17,-142.83 0,-67.45 48.07,-124.32 113.53,-137.55 0,-1.32 0,-1.32 0,-2.64 0,-62.16 50.74,-112.42 113.54,-112.42 16.01,0 32.04,3.97 45.4,9.26 28.05,-55.55 85.49,-93.9 152.26,-93.9 93.51,0 169.63,75.39 169.63,167.96 0,9.26 -1.34,18.52 -2.66,27.77 1.32,0 1.32,0 2.66,0 77.47,0 141.59,63.49 141.59,140.19 0,75.39 -57.43,140.19 -133.57,142.84l-96.17 0c20.04,-56.87 8,-123 -37.39,-167.96 -62.77,-62.16 -165.64,-62.16 -228.41,0 -48.07,47.61 -61.43,113.73 -40.07,169.28z"/>
  <path class="fil0" d="M833.75 762.16c45.42,44.96 58.77,111.09 37.4,167.96 -4,10.58 -9.35,21.16 -16.03,31.74 -6.68,9.26 -13.35,18.52 -22.7,27.78 -1.33,1.32 -2.68,2.64 -4.01,3.96 -1.34,1.33 -1.34,1.33 -2.67,2.65 -1.34,1.32 -2.68,1.32 -2.68,2.64l0 0c-1.33,1.33 -2.67,1.33 -2.67,2.65l0 0c-1.33,1.32 -1.33,1.32 -2.67,1.32l-1.33 1.32c-1.34,0 -1.34,1.32 -2.68,1.32l0 0c-1.33,1.33 -2.67,1.33 -4,2.65 -1.34,1.32 -2.67,1.32 -4,2.64 -62.79,39.68 -146.93,31.75 -201.68,-22.48 -17.38,-17.19 -29.4,-37.03 -37.42,-58.19 -20.02,-56.87 -8.01,-123 37.42,-167.96 64.1,-62.16 166.95,-62.16 229.72,0z"/>
  <path class="fil1" d="M936.59 1172.14c-4,0 -8,-1.32 -12.01,-5.29l-96.17 -95.22c-2.67,-2.64 -5.35,-7.93 -5.35,-11.9 0,-3.97 1.34,-7.94 5.35,-11.9l6.68 -6.62c6.68,-6.61 17.36,-6.61 24.04,0 5.34,5.29 6.68,11.91 4.01,17.2l73.45 72.74 41.41 -41 -73.46 -72.74c-5.34,2.64 -13.36,1.32 -17.36,-3.97 -6.67,-6.61 -6.67,-17.19 0,-23.8l6.68 -6.62c6.67,-6.61 17.37,-6.61 24.04,0l96.17 95.23c2.68,2.64 5.34,7.93 5.34,11.9 0,3.96 -1.33,7.93 -5.34,11.9l-65.45 64.8c-4.01,2.65 -8.01,5.29 -12.03,5.29z"/>
  <path class="fil1" d="M968.65 947.31l-96.18 0c-9.33,0 -17.35,-7.93 -17.35,-17.19 0,-9.26 8.02,-17.19 17.35,-17.19l96.18 0c65.45,-2.65 117.55,-56.87 117.55,-125.64 0,-68.78 -56.11,-124.32 -124.23,-124.32 0,0 0,0 -1.34,0l-1.32 0c-5.34,0 -9.35,-2.65 -13.37,-5.29 -2.66,-3.97 -4.01,-9.26 -4.01,-13.23 1.35,-7.93 2.68,-17.19 2.68,-25.13 0,-83.32 -68.11,-152.09 -152.27,-152.09 -58.77,0 -110.85,33.07 -137.58,84.64 -3.99,7.94 -13.35,11.91 -21.36,7.94 -12.02,-5.29 -25.38,-7.94 -38.72,-7.94 -53.45,0 -96.18,42.33 -96.18,95.23l0 2.64c0,7.94 -5.34,14.55 -13.36,15.87 -57.42,11.91 -100.18,62.16 -100.18,121.68 0,58.19 36.07,111.09 85.49,125.64l97.5 0c9.35,0 17.38,7.93 17.38,17.19 0,9.26 -8.03,17.19 -17.38,17.19l-100.17 0c-1.34,0 -2.67,0 -4.01,0 -65.45,-18.51 -112.19,-84.64 -112.19,-158.7 0,-70.1 46.74,-130.93 113.53,-150.77 5.34,-66.13 61.43,-119.03 129.57,-119.03 13.34,0 25.36,1.33 37.38,5.29 14.7,-25.13 36.07,-46.29 60.11,-60.84 29.38,-18.51 64.11,-29.09 100.17,-29.09 102.84,0 185.66,83.32 185.66,185.15 0,3.97 0,7.94 0,11.91 80.13,7.93 141.59,75.38 141.59,156.06 0,87.28 -66.79,157.38 -150.94,160.02l0 0z"/>
  <path class="fil1" d="M720.22 1053.12c-6.67,0 -12.02,0 -18.7,-1.33 -40.07,-3.96 -78.81,-22.48 -108.19,-50.25 -18.7,-18.52 -32.06,-39.68 -41.41,-64.81 -24.03,-64.8 -6.68,-137.54 41.41,-185.15 69.46,-68.77 182.98,-68.77 252.44,0 48.09,47.61 65.46,120.35 41.41,185.15 -4.01,11.91 -10.68,23.81 -17.36,34.39 -5.35,7.93 -14.7,10.58 -22.71,5.29 -8.02,-5.29 -10.68,-14.55 -5.34,-22.48 5.34,-9.26 10.68,-18.52 13.35,-27.78 18.7,-52.9 5.35,-111.09 -33.39,-150.77 -56.1,-55.54 -148.26,-55.54 -205.69,0 -40.08,39.68 -53.42,97.87 -33.4,150.77 6.68,19.84 18.7,37.03 33.4,52.9 48.08,47.61 124.21,55.55 180.32,19.84 1.33,-1.32 2.66,-1.32 2.66,-2.64l0 0c1.34,0 1.34,-1.32 2.68,-1.32 8.01,-5.29 17.36,-3.97 22.7,3.96 5.34,7.94 4.01,17.19 -4.01,22.48 1.34,0 0,0 -1.33,1.33 -1.34,1.32 -2.67,1.32 -4.01,2.64 -28.04,18.52 -61.44,27.78 -94.83,27.78z"/>
  <path class="fil2" d="M824.4 1014.76c-5.34,0 -9.35,-1.32 -13.36,-5.29 -5.33,-6.61 -5.33,-17.19 1.34,-23.8 1.33,-1.32 1.33,-1.32 2.67,-2.65l0 0c1.34,-1.32 1.34,-1.32 2.67,-2.64 6.68,-6.62 17.37,-6.62 24.05,0 6.67,6.61 6.67,17.19 0,23.8 -1.34,1.32 -2.68,2.65 -2.68,2.65 -1.33,1.32 -2.66,2.64 -4,2.64 -2.67,3.97 -6.68,5.29 -10.69,5.29z"/>
  <path class="fil2" d="M820.39 1017.41c-5.34,0 -9.35,-2.65 -13.35,-6.62 -5.34,-6.61 -4.01,-17.19 2.67,-23.8 1.33,0 1.33,-1.32 2.67,-1.32 6.68,-6.62 17.36,-5.29 24.05,1.32 6.67,6.61 5.34,17.19 -1.34,23.8 -1.34,1.33 -2.67,2.65 -4,2.65 -2.68,2.64 -6.69,3.97 -10.7,3.97z"/>
  <path class="fil2" d="M813.71 1022.7c-5.34,0 -10.68,-2.65 -13.35,-6.62 -5.35,-7.93 -4,-17.19 4,-22.48l1.35 -1.32c0,0 0,0 1.33,-1.32l0 0 1.33 -1.32c6.68,-5.29 17.37,-5.29 24.05,2.64 5.34,6.61 5.34,17.19 -2.68,23.8 -1.33,1.33 -2.67,1.33 -2.67,2.65l-1.33 1.32c-1.34,0 -1.34,1.32 -2.68,1.32 -2.67,0 -5.34,1.33 -9.35,1.33z"/>
  <path class="fil1" d="M832.42 1013.44l14.69 15.87 26.71 -26.45 -14.69 -14.55c-4.01,5.29 -8.01,9.26 -12.02,13.23 -1.34,1.32 -2.67,2.64 -4.01,3.96 -1.33,1.33 -2.67,2.65 -2.67,2.65 -1.34,1.32 -2.67,2.64 -4,2.64l0 0c-2.68,1.33 -4.01,2.65 -4.01,2.65zm14.69 55.55l0 0c-4.01,0 -9.35,-1.32 -12.02,-5.29l-40.08 -41c-4,-3.97 -5.33,-7.94 -4,-13.23 0,-5.29 4,-9.25 8.01,-11.9 1.34,-1.32 2.68,-1.32 2.68,-2.64 1.33,-1.33 2.66,-1.33 2.66,-2.65l0 0 1.35 -1.32 0 0c0,0 1.33,0 1.33,-1.32l0 0 1.33 -1.33 0 0c1.34,-1.32 1.34,-1.32 2.67,-2.64l0 0c1.34,-1.32 1.34,-1.32 2.67,-2.65 1.34,-1.32 1.34,-1.32 2.68,-2.64 1.33,-1.33 2.67,-2.65 2.67,-2.65 8.01,-7.93 14.69,-15.87 20.03,-25.13 2.68,-3.96 6.68,-6.61 12.03,-7.93 5.33,0 10.68,1.32 13.35,5.29l41.41 41c6.68,6.61 6.68,17.19 0,23.8l-50.76 50.26c0,2.65 -4,3.97 -8.01,3.97z"/>
 </g>
</svg>
